<svg xmlns="http://www.w3.org/2000/svg" viewBox="-250 -100 500 500" width="1000" height="1000" style="transform:scale(5)">
  <!-- 定義: フィルター -->
  <defs>
    <filter id="fire">
      <!-- 背景画像を読み込む -->
      <feImage href="./img/photo-0001.jpg" result="IMAGE"></feImage>
      <!-- ノイズや揺らぎを適用 -->
    <feTurbulence id="turbulence" in="IMAGE" baseFrequency="0.01" numOctaves="2" result="NOISE"></feTurbulence>

    <feDisplacementMap in="IMAGE" in2="NOISE" scale="30" result="DISPLACE"></feDisplacementMap>
    <animate href="#turbulence" attributeName="baseFrequency" dur="40s" keyTimes="0;0.5;1" values="0.01 0.02;0.02 0.04;0.01 0.02" repeatCount="indefinite"></animate>
    <feComposite operator="in" in="DISPLACE" in2="SourceGraphic"></feComposite>
    </filter>

    <!-- 定義: クリップパス -->
    <clipPath id="clip-shape">
      <!-- 切り抜きたい形状（例: 円形） -->
      <path class="st-01"
         d="m 28.998055,120.08545 v -0.38585 c 0.16169,-1.27147 0.349104,-2.54294 0.56224,-3.81442 0.213137,-1.27882 0.389526,-2.56499 0.529167,-3.85851 h 0.992189 v 0.35278 c -0.16904,1.29352 -0.360128,2.57969 -0.573265,3.85851 -0.205787,1.27148 -0.3932,2.55397 -0.56224,3.84749 z m -2.767104,-3.92466 -0.176389,-0.17639 -0.06615,-1.05833 0.275608,-4.24436 h 0.959116 v 0.73863 l -0.242535,4.10104 0.03307,0.0772 h 0.06615 v -0.0331 c 0.352778,-0.0735 0.720255,-0.0992 1.102431,-0.0772 v 0.17639 h -0.07717 l -0.06615,0.11024 c -0.235185,0.23519 -0.514468,0.36381 -0.837848,0.38585 -0.31603,0.0221 -0.63941,0.0221 -0.97014,0 z"
         style="font-size:11.2889px;font-family:'851MkPOP';-inkscape-font-specification:'851MkPOP, Normal';fill:#ffff00;stroke:#000000;stroke-width:0.265;paint-order:stroke fill markers"
         id="path01" />
    </clipPath>
  </defs>

  <!-- 背景画像を表示 -->
  <rect x="0" y="0" width="500" height="500" filter="url(#fire)" clip-path="url(#clip-shape)" />
</svg>