<?xml version="1.0" encoding="UTF-8" standalone="no"?>
<!-- Created with Inkscape (http://www.inkscape.org/) -->

<svg
   width="210mm"
   height="297mm"
   viewBox="0 0 210 297"
   version="1.1"
   id="svg1"
   inkscape:version="1.3.2 (091e20e, 2023-11-25, custom)"
   sodipodi:docname="描画_テキスト_01.svg"
   xmlns:inkscape="http://www.inkscape.org/namespaces/inkscape"
   xmlns:sodipodi="http://sodipodi.sourceforge.net/DTD/sodipodi-0.dtd"
   xmlns="http://www.w3.org/2000/svg"
   xmlns:svg="http://www.w3.org/2000/svg">
  <sodipodi:namedview
     id="namedview1"
     pagecolor="#ffffff"
     bordercolor="#000000"
     borderopacity="0.25"
     inkscape:showpageshadow="2"
     inkscape:pageopacity="0.0"
     inkscape:pagecheckerboard="0"
     inkscape:deskcolor="#d1d1d1"
     inkscape:document-units="mm"
     showgrid="true"
     inkscape:zoom="0.50835205"
     inkscape:cx="405.23098"
     inkscape:cy="337.36463"
     inkscape:window-width="1920"
     inkscape:window-height="1009"
     inkscape:window-x="-8"
     inkscape:window-y="-8"
     inkscape:window-maximized="1"
     inkscape:current-layer="layer1">
    <inkscape:grid
       id="grid1"
       units="mm"
       originx="0"
       originy="0"
       spacingx="0.99999998"
       spacingy="1"
       empcolor="#0099e5"
       empopacity="0.30196078"
       color="#0099e5"
       opacity="0.14901961"
       empspacing="5"
       enabled="true"
       visible="true" />
  </sodipodi:namedview>
    <style>
    .st0 {
      fill: none;
      stroke: #000;
      stroke-width: 1;
      stroke-miterlimit: 50;
      stroke-dasharray: 556.6190795898438;
      stroke-dashoffset: 556.6190795898438;
      animation: strokeAnimation 50s linear 0s infinite;
    }
    @keyframes strokeAnimation {
      0% { stroke-dashoffset: 556.6190795898438; }
      80% { stroke-dashoffset: 0; }
      100% { stroke-dashoffset: 0; }
    }
  </style>
  <defs
     id="defs1">
    <linearGradient
       id="swatch1"
       inkscape:swatch="solid">
      <stop
         style="stop-color:#000000;stop-opacity:1;"
         offset="0"
         id="stop1" />
    </linearGradient>
  </defs>
  <g
     inkscape:label="Layer 1"
     inkscape:groupmode="layer"
     id="layer1">
    <path class="st0"
       style="font-size:11.2889px;font-family:'851MkPOP';-inkscape-font-specification:'851MkPOP, Normal';fill:#ffff00;stroke:#000000;stroke-width:0.265;paint-order:stroke fill markers"
       d="m 51.57663,100.82806 v -0.38585 q 0.242535,-1.907205 0.56224,-3.814412 0.319705,-1.918231 0.529167,-3.858511 h 0.992189 v 0.352778 q -0.253559,1.94028 -0.573265,3.858511 -0.30868,1.907207 -0.56224,3.847484 z m -2.767104,-3.924654 -0.176389,-0.176389 -0.06614,-1.058335 0.275607,-4.244362 h 0.959116 v 0.73863 l -0.242535,4.101045 0.03307,0.07717 h 0.06615 v -0.03307 q 0.529167,-0.110243 1.102432,-0.07717 v 0.176389 h -0.07717 l -0.06615,0.110243 q -0.352778,0.352778 -0.837848,0.385851 -0.474045,0.03307 -0.97014,0 z m 6.879174,3.858514 v -0.17639 q 0.385851,-0.24254 0.749654,-0.55122 0.374826,-0.297655 0.727605,-0.61736 1.984377,-2.01745 2.689933,-2.800176 0.705556,-0.782727 1.422137,-1.796964 l 0.143316,-0.529167 -0.110243,-0.286632 q -0.352778,-0.25356 -0.8158,-0.286633 -1.411112,0.110243 -2.689933,0.727605 -1.267797,0.617362 -2.65686,0.727605 v -0.176389 q 1.389063,-0.749654 2.910419,-1.168578 1.521356,-0.429948 3.14193,-0.319705 0.573265,0 0.992189,0.286632 0.253559,0.275608 0.209462,0.672484 -0.209462,0.771702 -0.474046,1.091407 -0.264583,0.319705 -0.749653,0.870921 -0.474046,0.551216 -2.09462,2.282034 l -1.344967,1.267796 -0.352778,0.22049 -0.07717,0.0992 -0.529168,0.42994 z m 10.186468,-0.38585 v -0.0331 q -0.143316,-0.639408 -0.143316,-1.344964 l 0.209462,-2.061547 h 0.959116 v 0.396875 q -0.07717,0.529167 -0.132292,1.102432 -0.0441,0.56224 -0.0441,1.12448 l 0.132292,0.815804 z m 1.124481,-2.16077 v -0.17639 q 0.352778,-0.56224 0.760678,-1.113456 0.407899,-0.551215 0.617361,-1.190626 L 68.10208,95.415123 67.705205,95.38205 q -1.12448,0.176389 -2.138718,0.661459 -1.003212,0.474046 -2.17179,0.507119 v -0.176389 q 1.201651,-0.606338 2.469447,-0.959116 1.278821,-0.352778 2.689933,-0.275608 l 0.672484,0.209462 q 0.187413,0.209462 0.143316,0.529167 -0.143316,0.562241 -0.48507,1.025262 -0.33073,0.463021 -0.639411,0.959115 L 67.958764,98.2153 Z m 3.54983,1.90721 q -0.220486,-0.529171 -0.143316,-1.168581 0.143316,-0.948091 0.352778,-1.907207 0.209462,-0.959116 0.463022,-1.874134 h 0.981164 v 0.176389 q -0.275608,1.025262 -0.529167,2.105645 -0.242535,1.080383 -0.319706,2.17179 h 0.8158 v 0.176389 l -0.03307,0.07717 q -0.672483,0.385849 -1.587502,0.242539 z m 4.310508,-1.311897 -0.385851,-0.209462 q -0.286632,-0.418924 -0.308681,-0.948092 -0.01102,-0.540191 -0.01102,-1.069358 0.06615,-0.948092 0.176389,-1.885159 0.110243,-0.948091 0.253559,-1.863109 h 0.981164 v 0.319705 q -0.209462,1.058335 -0.319705,2.171791 -0.09922,1.113456 -0.09922,2.24896 0.03307,0.496094 0.352778,0.881945 l 0.209462,0.07717 q 0.959116,-0.286633 1.841061,-0.793751 0.881946,-0.518143 1.984377,-0.451997 v 0.176389 q -1.102431,0.540192 -2.215887,1.014237 -1.113456,0.474046 -2.458423,0.33073 z m 8.389505,1.565457 v -0.17639 q 0.496094,-1.245751 1.113456,-2.447402 0.617361,-1.20165 1.322918,-2.403301 l 0.992188,-0.03307 v 0.176389 q -0.705556,1.168578 -1.322918,2.392277 -0.617362,1.212675 -1.113456,2.4915 z m -2.370229,-2.304087 v -0.496094 q 0.275608,-1.554429 0.73863,-3.053736 0.463021,-1.510331 0.992188,-2.998614 h 0.992189 v 0.220487 q -0.352778,0.881945 -0.661459,1.807988 -0.297657,0.915018 -0.540192,1.830036 h 0.242535 q 1.45521,-0.209462 2.888371,-0.418924 1.433161,-0.220486 2.921444,-0.220486 v 0.176389 q -1.565453,0.143316 -3.06476,0.374827 -1.499307,0.23151 -3.06476,0.341753 -0.176389,0.595314 -0.297657,1.201651 -0.121267,0.595313 -0.198437,1.234723 z m 13.548885,1.730818 v -0.176389 l 0.738629,-0.595313 0.573264,-0.573265 h 0.06615 q 0.385851,-0.56224 0.650435,-1.157553 0.275608,-0.606337 0.275608,-1.311893 -0.110243,-0.705557 -0.540192,-1.245748 -0.451997,-0.385851 -0.992188,-0.595313 -0.529167,-0.209462 -1.12448,-0.209462 -0.705557,0.09922 -1.367016,0.385851 -0.650434,0.286632 -1.256772,0.672483 l -0.03307,0.06615 -0.385851,0.319705 -0.352778,0.352778 -0.463021,0.529167 q -0.352778,0.540192 -0.352778,1.212675 l 0.286632,0.418924 0.209462,0.06615 0.881945,-0.56224 0.03307,-0.06615 0.496094,-0.463021 h 0.07717 l 0.352778,-0.496094 q 0.451997,-0.529168 0.815799,-1.135505 l 0.209462,-0.529167 h 0.992189 v 0.176389 q -0.319706,0.782726 -0.848873,1.488283 l -0.110243,0.03307 -0.209462,0.352778 -0.352778,0.352778 h -0.07717 l -0.06615,0.143316 -0.110243,0.03307 -0.03307,0.110243 q -0.529168,0.56224 -1.245748,0.782727 -0.705556,0.209462 -1.510332,0.09922 l -0.429948,-0.132291 -0.286632,-0.363803 -0.06615,-0.738629 q 0.06615,-0.463021 0.297657,-0.826824 0.23151,-0.374827 0.551215,-0.727605 l 0.705557,-0.63941 q 0.672483,-0.463021 1.400088,-0.738629 0.727605,-0.286633 1.543404,-0.396876 h 1.796964 q 0.496094,0.07717 0.937067,0.242535 0.451997,0.154341 0.837848,0.429949 0.319705,0.286632 0.529167,0.672483 0.319705,0.606337 0.242535,1.37804 -0.06615,0.672483 -0.352778,1.256772 -0.275608,0.584288 -0.738629,1.080383 -0.529168,0.573264 -1.234724,1.025261 z m 12.799232,0.463019 q -0.91502,-0.28663 -1.78594,-0.782724 -0.8599,-0.496094 -1.64262,-1.12448 L 103.68857,98.2153 h -0.0992 l -1.34496,1.521355 -0.17639,0.176389 h -0.99219 v -0.176389 l 0.24254,-0.286632 h 0.0772 l 0.14331,-0.242535 0.84887,-0.959116 0.59532,-0.63941 v -0.09922 l -0.14332,-0.07717 -0.14331,-0.143316 -0.56224,-0.738629 v -0.06615 l -0.11025,-0.07717 q -0.17639,-0.209462 -0.20946,-0.529168 h 0.95912 l 0.73862,1.058335 h 0.0772 l 0.84888,-0.948091 0.88194,-0.848873 h 0.95912 v 0.176389 l -0.46302,0.385851 -0.28664,0.385851 -0.70555,0.749654 -0.24254,0.275608 -0.39687,0.496094 0.0772,0.143316 0.38585,0.286632 0.0331,0.09922 q 0.84887,0.639411 1.73082,1.168578 0.89297,0.529167 1.88516,0.782723 v 0.17639 z m -8.202092,-5.247572 v -0.176389 q 0.672483,-0.209462 1.157552,-0.286633 0.4961,-0.08819 3.05374,-0.451997 0.0331,-0.738629 0.0992,-1.466234 0.0772,-0.727605 0.14331,-1.433161 h 0.99219 v 0.396875 l -0.25356,2.370229 h 0.18741 q 0.77171,-0.07717 1.51034,-0.165365 0.74965,-0.08819 1.56545,-0.08819 v 0.209462 l -3.2632,0.319705 v 0.496095 h -0.94809 l -0.0331,-0.319705 h -0.0772 q -2.48047,0.429948 -2.92145,0.551215 -0.429946,0.121268 -1.212672,0.0441 z m 16.095502,5.324742 v -0.18741 q 0.28663,-0.451998 0.56224,-0.915019 0.28663,-0.463021 0.42995,-0.959116 h -0.17639 q -0.91502,0.176389 -1.78594,0.463022 -0.87092,0.286632 -1.86311,0.253559 v -0.176389 q 0.95912,-0.286632 1.95131,-0.529167 0.99219,-0.25356 1.98437,-0.396876 v -0.176389 l -0.25356,-0.385851 -0.20946,-0.110243 q -0.70555,0.496094 -1.69774,0.352778 v -0.209462 l 0.11024,-0.03307 0.0992,-0.220486 0.38585,-0.385851 h 0.0772 l 0.28663,-0.385851 0.0992,-0.03307 0.20946,-0.363803 0.46303,-0.595313 0.0772,-0.319705 -0.22049,-0.06615 q -0.49609,0.176389 -0.97014,0.4079 -0.47405,0.220486 -0.93707,0.507118 l -0.0331,0.06615 h -1.06936 v -0.176389 q 0.60634,-0.385851 1.2237,-0.661459 0.61736,-0.286632 1.28985,-0.429948 h 1.4552 l 0.24254,0.209462 v 0.396875 q -0.13229,0.385851 -0.38585,0.705557 l -0.28663,0.352778 -0.41893,0.463021 h -0.0661 v 0.132292 q 0.73863,-0.09922 1.30087,0.253559 l 0.22048,0.529167 h 0.0661 q 0.73863,-0.209462 1.55443,-0.143316 v 0.209462 l -1.62058,0.253559 q -0.11024,0.639411 -0.42995,1.190627 -0.3197,0.540191 -0.63941,1.069363 z m -3.92465,-4.354602 v -0.0441 q -0.28664,-0.705556 -0.39688,-1.499307 -0.0992,-0.793751 -0.0992,-1.642623 h 0.99219 l 0.0331,1.168578 h 0.14332 q 0.70556,-0.286633 1.41111,-0.529168 0.70556,-0.253559 1.45521,-0.429948 v -0.06615 h -0.0772 v -0.253559 l 0.0772,-1.984377 h 0.99219 v 0.496094 l -0.0331,0.0441 v 1.521356 h 0.13229 l 1.42214,-0.253559 h 2.05052 q 0.35278,0.03307 0.63941,0.286632 l 0.0992,0.463021 q -0.17639,0.73863 -0.62839,1.344967 h -0.95911 v -0.187413 q 0.38585,-0.595314 0.59531,-1.30087 l -0.0662,-0.143316 q -0.46302,-0.352778 -1.0914,-0.253559 -1.56546,0.220486 -3.08681,0.71658 -1.52136,0.496095 -3.00964,0.948092 v 0.110243 l 0.39687,1.488283 z m 13.68117,3.891583 v -0.110243 l -0.0331,-0.03307 v -2.304082 l 0.17639,-2.293058 h 0.94809 v 0.595313 l -0.0992,1.102432 h 0.0661 l 0.60634,-0.606337 0.52916,-0.529168 h 0.0661 l 0.11024,-0.209462 0.24254,-0.286632 0.28663,-0.319705 h 0.0662 q 0.25355,-0.418924 0.52916,-0.804775 0.28664,-0.396876 0.33073,-0.89297 l -0.14331,-0.242535 q -0.31971,-0.253559 -0.74966,-0.253559 -1.41111,0.209462 -2.75608,0.705556 -1.34496,0.496094 -2.57969,1.135505 l -0.0441,0.110243 h -1.05834 v -0.176389 q 1.69775,-0.926043 3.50573,-1.510332 1.80799,-0.584288 3.78135,-0.474045 0.52916,0 0.92604,0.352778 0.14331,0.286632 0.0992,0.672483 -0.1323,0.463022 -0.41893,0.89297 -0.28663,0.418924 -0.60633,0.804775 l -0.0992,0.03307 -0.35278,0.496094 -0.11025,0.03307 -0.28663,0.396876 -0.49609,0.496094 -0.20946,0.09922 -0.0331,0.110243 -0.3197,0.286632 h -0.88195 l -0.0441,0.209462 v 2.513544 z m 5.74367,-1.521355 v -0.176389 q 2.48047,-0.352779 4.97197,-0.584289 2.49149,-0.231511 5.00504,-0.297657 v 0.176389 q -2.51355,0.09922 -4.99402,0.4079 -2.46944,0.297657 -4.98299,0.474046 z m 5.60035,-4.012852 v -0.176389 l 0.4961,-0.286632 0.0331,-0.110243 0.20946,-0.275608 h -0.38585 q -0.88194,0.143316 -1.75286,0.352778 -0.8599,0.209462 -1.81902,0.143316 -0.14331,-0.07717 -0.11024,-0.286632 0.8158,0.03307 1.52136,-0.15434 0.70555,-0.198438 1.48828,-0.275608 h 1.87413 l 0.20946,0.110243 v 0.319705 l -0.24253,0.242535 h -0.0662 l -0.0772,0.110243 q -0.56224,0.429948 -1.37804,0.286632 z m 5.21451,5.997226 v -0.18741 l 0.14331,-0.0992 2.4033,-3.009638 0.17639,-0.176389 V 96.76009 l -0.46302,-0.319705 -0.88194,-0.73863 v -0.209462 h 0.95911 l 0.94809,0.73863 1.24575,-1.587502 1.55443,-1.951304 0.60634,-0.738629 h 0.98116 v 0.176389 l -2.82222,3.538805 -0.89297,1.135505 q 0.49609,0.352778 1.00321,0.694532 0.51814,0.330729 1.09141,0.540191 0.49609,-0.110243 1.05833,-0.07717 v 0.187414 q -0.73863,0.30868 -1.69774,0.209462 -0.52917,-0.143316 -1.01424,-0.440973 -0.47405,-0.308681 -0.97014,-0.584289 l -0.0661,0.09922 -2.09462,2.546617 -0.27561,0.3638 z m 8.44462,-3.792362 -0.0331,-0.209462 q 1.55443,-0.286633 3.10886,-0.584289 1.56545,-0.297657 3.15295,-0.474046 h 1.48829 v 0.176389 q -1.98438,0.06615 -3.88056,0.507119 -1.88516,0.440973 -3.83647,0.584289 z m 8.67614,2.689933 -0.0331,-0.209462 q 2.40331,-0.573265 4.80661,-1.190626 2.41432,-0.617362 4.88377,-0.826824 v 0.176389 q -2.43637,0.385851 -4.82865,1.080383 -2.38125,0.683508 -4.82865,0.97014 z m 3.29627,-3.263198 -0.99219,-0.110243 h -1.42214 l -0.62838,-0.06615 v -0.176389 h 1.02526 l 0.67248,0.06615 h 1.41111 l 0.88195,0.110243 v 0.176389 z m 0.91502,-2.182815 q -0.73863,-0.143316 -1.49931,-0.23151 -0.76068,-0.08819 -1.5434,-0.165365 v -0.176389 h 0.99218 q 0.78273,0.07717 1.54341,0.165365 0.76068,0.08819 1.49931,0.23151 v 0.176389 z m 6.53742,6.228742 v -0.176392 q 0.95911,-0.319705 1.84106,-0.705556 0.89297,-0.396875 1.98438,-0.319705 v 0.176389 q -0.95912,0.275608 -1.84106,0.683508 -0.88195,0.407896 -1.98438,0.341756 z m 3.36242,0 v -0.176392 l 0.22048,-0.110243 q 0.41893,-0.63941 0.70556,-1.311893 0.28663,-0.672484 0.24253,-1.488283 l -0.24253,-0.56224 q -0.28663,-0.319706 -0.70556,-0.352779 -1.02526,0.17639 -1.92925,0.749654 -0.904,0.56224 -2.00643,0.518143 v -0.176389 q 0.74965,-0.451997 1.54341,-0.804775 0.79375,-0.363803 1.67569,-0.496095 h 1.59853 q 0.41892,0.03307 0.73863,0.352779 l 0.0441,0.09922 0.0992,0.0441 q 0.25356,0.595313 0.17639,1.300869 -0.0992,0.606338 -0.33073,1.157553 -0.23151,0.540192 -0.58429,1.036286 l -0.25356,0.220489 z m -3.36242,-1.422139 v -0.176389 q 0.92604,-0.319706 1.80799,-0.617362 0.88194,-0.297657 1.9513,-0.231511 v 0.176389 q -0.95911,0.176389 -1.84106,0.551216 -0.88195,0.374827 -1.91823,0.297657 z m 6.8902,1.245747 v -0.176389 q 1.73081,-0.63941 3.40651,-1.344966 1.68672,-0.716581 3.49471,-0.959116 v 0.209462 q -1.69775,0.573265 -3.39549,1.311894 -1.69775,0.738629 -3.50573,0.959115 z m 1.0914,-4.387678 v -0.0441 q -0.3197,-0.595313 -0.7276,-1.146529 -0.39688,-0.551216 -0.71658,-1.113456 h -0.0772 v -0.176389 h 0.99219 l 0.0772,0.176389 0.0992,0.06615 q 0.35278,0.529167 0.76068,1.080383 0.4079,0.551216 0.58429,1.157553 z"
       id="text1"
       aria-label="リファルケの文字アニメーション" >
       <animate attributeName="fill" from="transparent" to="#ffff00" begin="0s" dur="2s" fill="freeze" />
       </path>
  </g>
</svg>
