<?xml version="1.0" encoding="UTF-8" standalone="no"?>
<!-- Created with Inkscape (http://www.inkscape.org/) -->

<svg
   width="297mm"
   height="210mm"
   viewBox="-80 30 297 210"
   version="1.1"
   id="svg1"
   inkscape:version="1.3.2 (091e20e, 2023-11-25, custom)"
   sodipodi:docname="描画_テキスト_02.svg"
   xmlns:inkscape="http://www.inkscape.org/namespaces/inkscape"
   xmlns:sodipodi="http://sodipodi.sourceforge.net/DTD/sodipodi-0.dtd"
   xmlns="http://www.w3.org/2000/svg"
   xmlns:svg="http://www.w3.org/2000/svg" style="transform:scale(2.5);background-color: #000000;">
   <sodipodi:namedview
      id="namedview1"
      pagecolor="#ffffff"
      bordercolor="#000000"
      borderopacity="0.25"
      inkscape:showpageshadow="2"
      inkscape:pageopacity="0.0"
      inkscape:pagecheckerboard="0"
      inkscape:deskcolor="#d1d1d1"
      inkscape:document-units="mm"
      inkscape:zoom="2.8970539"
      inkscape:cx="349.83816"
      inkscape:cy="384.70117"
      inkscape:window-width="1920"
      inkscape:window-height="1009"
      inkscape:window-x="-8"
      inkscape:window-y="-8"
      inkscape:window-maximized="1"
      inkscape:current-layer="layer1" />
   <style>
      .smoke {
         width: 100%;
         filter: url(#smoke) blur(1px) opacity(0.8);
      }
      .smoke_shadow {
         width: 100%;
         filter: url(#smoke) blur(4px) opacity(1.0);
      }
      .st-01 {
         stroke: #000;
         stroke-width: 1;
         stroke-miterlimit: 50;
         stroke-dasharray: 556.6190795898438;
         stroke-dashoffset: 556.6190795898438;
         fill-opacity: 0.0;
         animation: strokeAnimation 10s 1 linear forwards, fillAnimation 10s 1 linear forwards;
         animation-delay: 0.0s;
      }
      .st-02 {
         stroke: #000;
         stroke-width: 1;
         stroke-miterlimit: 50;
         stroke-dasharray: 556.6190795898438;
         stroke-dashoffset: 556.6190795898438;
         fill-opacity: 0.0;
         animation: strokeAnimation 10s 1 linear forwards, fillAnimation 10s 1 linear forwards;
         animation-delay: 0.3s;
      }
      .st-03 {
         stroke: #000;
         stroke-width: 1;
         stroke-miterlimit: 50;
         stroke-dasharray: 556.6190795898438;
         stroke-dashoffset: 556.6190795898438;
         fill-opacity: 0.0;
         animation: strokeAnimation 10s 1 linear forwards, fillAnimation 10s 1 linear forwards;
         animation-delay: 0.6s;
      }
      .st-04 {
         stroke: #000;
         stroke-width: 1;
         stroke-miterlimit: 50;
         stroke-dasharray: 556.6190795898438;
         stroke-dashoffset: 556.6190795898438;
         fill-opacity: 0.0;
         animation: strokeAnimation 10s 1 linear forwards, fillAnimation 10s 1 linear forwards;
         animation-delay: 0.9s;
      }
      .st-05 {
         stroke: #000;
         stroke-width: 1;
         stroke-miterlimit: 50;
         stroke-dasharray: 556.6190795898438;
         stroke-dashoffset: 556.6190795898438;
         fill-opacity: 0.0;
         animation: strokeAnimation 10s 1 linear forwards, fillAnimation 10s 1 linear forwards;
         animation-delay: 1.2s;
      }
      .st-06 {
         stroke: #000;
         stroke-width: 1;
         stroke-miterlimit: 50;
         stroke-dasharray: 556.6190795898438;
         stroke-dashoffset: 556.6190795898438;
         fill-opacity: 0.0;
         animation: strokeAnimation 10s 1 linear forwards, fillAnimation 10s 1 linear forwards;
         animation-delay: 1.5s;
      }
      .st-07 {
         stroke: #000;
         stroke-width: 1;
         stroke-miterlimit: 50;
         stroke-dasharray: 556.6190795898438;
         stroke-dashoffset: 556.6190795898438;
         fill-opacity: 0.0;
         animation: strokeAnimation 10s 1 linear forwards, fillAnimation 10s 1 linear forwards;
         animation-delay: 1.8s;
      }
      .st-08 {
         stroke: #000;
         stroke-width: 1;
         stroke-miterlimit: 50;
         stroke-dasharray: 556.6190795898438;
         stroke-dashoffset: 556.6190795898438;
         fill-opacity: 0.0;
         animation: strokeAnimation 10s 1 linear forwards, fillAnimation 10s 1 linear forwards;
         animation-delay: 2.1s;
      }
      .st-09 {
         stroke: #000;
         stroke-width: 1;
         stroke-miterlimit: 50;
         stroke-dasharray: 556.6190795898438;
         stroke-dashoffset: 556.6190795898438;
         fill-opacity: 0.0;
         animation: strokeAnimation 10s 1 linear forwards, fillAnimation 10s 1 linear forwards;
         animation-delay: 2.4s;
      }
      .st-10 {
         stroke: #000;
         stroke-width: 1;
         stroke-miterlimit: 50;
         stroke-dasharray: 556.6190795898438;
         stroke-dashoffset: 556.6190795898438;
         fill-opacity: 0.0;
         animation: strokeAnimation 10s 1 linear forwards, fillAnimation 10s 1 linear forwards;
         animation-delay: 2.7s;
      }
      .st-11 {
         stroke: #000;
         stroke-width: 1;
         stroke-miterlimit: 50;
         stroke-dasharray: 556.6190795898438;
         stroke-dashoffset: 556.6190795898438;
         fill-opacity: 0.0;
         animation: strokeAnimation 10s 1 linear forwards, fillAnimation 10s 1 linear forwards;
         animation-delay: 3.0s;
      }
      .st-12 {
         stroke: #000;
         stroke-width: 1;
         stroke-miterlimit: 50;
         stroke-dasharray: 556.6190795898438;
         stroke-dashoffset: 556.6190795898438;
         fill-opacity: 0.0;
         animation: strokeAnimation 10s 1 linear forwards, fillAnimation 10s 1 linear forwards;
         animation-delay: 3.5s;
      }
      .st-13 {
         stroke: #000;
         stroke-width: 1;
         stroke-miterlimit: 50;
         stroke-dasharray: 556.6190795898438;
         stroke-dashoffset: 556.6190795898438;
         fill-opacity: 0.0;
         animation: strokeAnimation 10s 1 linear forwards, fillAnimation 10s 1 linear forwards;
         animation-delay: 3.8s;
      }
      .st-14 {
         stroke: #000;
         stroke-width: 1;
         stroke-miterlimit: 50;
         stroke-dasharray: 556.6190795898438;
         stroke-dashoffset: 556.6190795898438;
         fill-opacity: 0.0;
         animation: strokeAnimation 10s 1 linear forwards, fillAnimation 10s 1 linear forwards;
         animation-delay: 4.1s;
      }
      .st-15 {
         stroke: #000;
         stroke-width: 1;
         stroke-miterlimit: 50;
         stroke-dasharray: 556.6190795898438;
         stroke-dashoffset: 556.6190795898438;
         fill-opacity: 0.0;
         animation: strokeAnimation 10s 1 linear forwards, fillAnimation 10s 1 linear forwards;
         animation-delay: 4.4s;
      }
      @keyframes strokeAnimation {
         0% {
            stroke-dashoffset: 556.6190795898438;
         }
         80% {
            stroke-dashoffset: 0;
         }
         100% {
            stroke-dashoffset: 0;
         }
      }
      @keyframes fillAnimation {
         0% {
            fill-opacity: 0.0;
         }
         10% {
            fill-opacity: 1.0;
         }
         100% {
            fill-opacity: 1.0;
         }
      }
   </style>
   <defs
      id="defs1" />
   <!-- smokeのフィルター -->
   <filter id="smoke">
      <!-- ノイズや揺らぎの文様設定 -->
      <feTurbulence id="smoke-turbulence" type="fractalNoise" baseFrequency="0.01" numOctaves="3">
         <animate href="#smoke-turbulence" attributeName="baseFrequency" dur="40s" keyTimes="0;0.5;1" values="0.01 0.02;0.02 0.04;0.01 0.02" repeatCount="indefinite"></animate>
      </feTurbulence>
      <feDisplacementMap in="SourceGraphic" scale="30"></feDisplacementMap>
   </filter>
   <filter id="smoke_shadow">
      <!-- ノイズや揺らぎの文様設定 -->
      <feTurfeDropShadow dx="0.2" dy="0.4" stdDeviation="0.2">
      </feTurfeDropShadow>
   </filter>
   <g 
      inkscape:label="Layer 1"
      inkscape:groupmode="layer"
      id="layer1">
    <path
       style="font-size:11.2889px;font-family:'851MkPOP';-inkscape-font-specification:'851MkPOP, Normal';fill:#ffff00;stroke:#000000;stroke-width:0.265;paint-order:stroke fill markers"
       d="m 51.57663,100.82806 v -0.38585 q 0.242535,-1.907205 0.56224,-3.814412 0.319705,-1.918231 0.529167,-3.858511 h 0.992189 v 0.352778 q -0.253559,1.94028 -0.573265,3.858511 -0.30868,1.907207 -0.56224,3.847484 z m -2.767104,-3.924654 -0.176389,-0.176389 -0.06614,-1.058335 0.275607,-4.244362 h 0.959116 v 0.73863 l -0.242535,4.101045 0.03307,0.07717 h 0.06615 v -0.03307 q 0.529167,-0.110243 1.102432,-0.07717 v 0.176389 h -0.07717 l -0.06615,0.110243 q -0.352778,0.352778 -0.837848,0.385851 -0.474045,0.03307 -0.97014,0 z m 6.879174,3.858514 v -0.17639 q 0.385851,-0.24254 0.749654,-0.55122 0.374826,-0.297655 0.727605,-0.61736 1.984377,-2.01745 2.689933,-2.800176 0.705556,-0.782727 1.422137,-1.796964 l 0.143316,-0.529167 -0.110243,-0.286632 q -0.352778,-0.25356 -0.8158,-0.286633 -1.411112,0.110243 -2.689933,0.727605 -1.267797,0.617362 -2.65686,0.727605 v -0.176389 q 1.389063,-0.749654 2.910419,-1.168578 1.521356,-0.429948 3.14193,-0.319705 0.573265,0 0.992189,0.286632 0.253559,0.275608 0.209462,0.672484 -0.209462,0.771702 -0.474046,1.091407 -0.264583,0.319705 -0.749653,0.870921 -0.474046,0.551216 -2.09462,2.282034 l -1.344967,1.267796 -0.352778,0.22049 -0.07717,0.0992 -0.529168,0.42994 z m 10.186468,-0.38585 v -0.0331 q -0.143316,-0.639408 -0.143316,-1.344964 l 0.209462,-2.061547 h 0.959116 v 0.396875 q -0.07717,0.529167 -0.132292,1.102432 -0.0441,0.56224 -0.0441,1.12448 l 0.132292,0.815804 z m 1.124481,-2.16077 v -0.17639 q 0.352778,-0.56224 0.760678,-1.113456 0.407899,-0.551215 0.617361,-1.190626 L 68.10208,95.415123 67.705205,95.38205 q -1.12448,0.176389 -2.138718,0.661459 -1.003212,0.474046 -2.17179,0.507119 v -0.176389 q 1.201651,-0.606338 2.469447,-0.959116 1.278821,-0.352778 2.689933,-0.275608 l 0.672484,0.209462 q 0.187413,0.209462 0.143316,0.529167 -0.143316,0.562241 -0.48507,1.025262 -0.33073,0.463021 -0.639411,0.959115 L 67.958764,98.2153 Z m 3.54983,1.90721 q -0.220486,-0.529171 -0.143316,-1.168581 0.143316,-0.948091 0.352778,-1.907207 0.209462,-0.959116 0.463022,-1.874134 h 0.981164 v 0.176389 q -0.275608,1.025262 -0.529167,2.105645 -0.242535,1.080383 -0.319706,2.17179 h 0.8158 v 0.176389 l -0.03307,0.07717 q -0.672483,0.385849 -1.587502,0.242539 z m 4.310508,-1.311897 -0.385851,-0.209462 q -0.286632,-0.418924 -0.308681,-0.948092 -0.01102,-0.540191 -0.01102,-1.069358 0.06615,-0.948092 0.176389,-1.885159 0.110243,-0.948091 0.253559,-1.863109 h 0.981164 v 0.319705 q -0.209462,1.058335 -0.319705,2.171791 -0.09922,1.113456 -0.09922,2.24896 0.03307,0.496094 0.352778,0.881945 l 0.209462,0.07717 q 0.959116,-0.286633 1.841061,-0.793751 0.881946,-0.518143 1.984377,-0.451997 v 0.176389 q -1.102431,0.540192 -2.215887,1.014237 -1.113456,0.474046 -2.458423,0.33073 z m 8.389505,1.565457 v -0.17639 q 0.496094,-1.245751 1.113456,-2.447402 0.617361,-1.20165 1.322918,-2.403301 l 0.992188,-0.03307 v 0.176389 q -0.705556,1.168578 -1.322918,2.392277 -0.617362,1.212675 -1.113456,2.4915 z m -2.370229,-2.304087 v -0.496094 q 0.275608,-1.554429 0.73863,-3.053736 0.463021,-1.510331 0.992188,-2.998614 h 0.992189 v 0.220487 q -0.352778,0.881945 -0.661459,1.807988 -0.297657,0.915018 -0.540192,1.830036 h 0.242535 q 1.45521,-0.209462 2.888371,-0.418924 1.433161,-0.220486 2.921444,-0.220486 v 0.176389 q -1.565453,0.143316 -3.06476,0.374827 -1.499307,0.23151 -3.06476,0.341753 -0.176389,0.595314 -0.297657,1.201651 -0.121267,0.595313 -0.198437,1.234723 z m 13.548885,1.730818 v -0.176389 l 0.738629,-0.595313 0.573264,-0.573265 h 0.06615 q 0.385851,-0.56224 0.650435,-1.157553 0.275608,-0.606337 0.275608,-1.311893 -0.110243,-0.705557 -0.540192,-1.245748 -0.451997,-0.385851 -0.992188,-0.595313 -0.529167,-0.209462 -1.12448,-0.209462 -0.705557,0.09922 -1.367016,0.385851 -0.650434,0.286632 -1.256772,0.672483 l -0.03307,0.06615 -0.385851,0.319705 -0.352778,0.352778 -0.463021,0.529167 q -0.352778,0.540192 -0.352778,1.212675 l 0.286632,0.418924 0.209462,0.06615 0.881945,-0.56224 0.03307,-0.06615 0.496094,-0.463021 h 0.07717 l 0.352778,-0.496094 q 0.451997,-0.529168 0.815799,-1.135505 l 0.209462,-0.529167 h 0.992189 v 0.176389 q -0.319706,0.782726 -0.848873,1.488283 l -0.110243,0.03307 -0.209462,0.352778 -0.352778,0.352778 h -0.07717 l -0.06615,0.143316 -0.110243,0.03307 -0.03307,0.110243 q -0.529168,0.56224 -1.245748,0.782727 -0.705556,0.209462 -1.510332,0.09922 l -0.429948,-0.132291 -0.286632,-0.363803 -0.06615,-0.738629 q 0.06615,-0.463021 0.297657,-0.826824 0.23151,-0.374827 0.551215,-0.727605 l 0.705557,-0.63941 q 0.672483,-0.463021 1.400088,-0.738629 0.727605,-0.286633 1.543404,-0.396876 h 1.796964 q 0.496094,0.07717 0.937067,0.242535 0.451997,0.154341 0.837848,0.429949 0.319705,0.286632 0.529167,0.672483 0.319705,0.606337 0.242535,1.37804 -0.06615,0.672483 -0.352778,1.256772 -0.275608,0.584288 -0.738629,1.080383 -0.529168,0.573264 -1.234724,1.025261 z m 12.799232,0.463019 q -0.91502,-0.28663 -1.78594,-0.782724 -0.8599,-0.496094 -1.64262,-1.12448 L 103.68857,98.2153 h -0.0992 l -1.34496,1.521355 -0.17639,0.176389 h -0.99219 v -0.176389 l 0.24254,-0.286632 h 0.0772 l 0.14331,-0.242535 0.84887,-0.959116 0.59532,-0.63941 v -0.09922 l -0.14332,-0.07717 -0.14331,-0.143316 -0.56224,-0.738629 v -0.06615 l -0.11025,-0.07717 q -0.17639,-0.209462 -0.20946,-0.529168 h 0.95912 l 0.73862,1.058335 h 0.0772 l 0.84888,-0.948091 0.88194,-0.848873 h 0.95912 v 0.176389 l -0.46302,0.385851 -0.28664,0.385851 -0.70555,0.749654 -0.24254,0.275608 -0.39687,0.496094 0.0772,0.143316 0.38585,0.286632 0.0331,0.09922 q 0.84887,0.639411 1.73082,1.168578 0.89297,0.529167 1.88516,0.782723 v 0.17639 z m -8.202092,-5.247572 v -0.176389 q 0.672483,-0.209462 1.157552,-0.286633 0.4961,-0.08819 3.05374,-0.451997 0.0331,-0.738629 0.0992,-1.466234 0.0772,-0.727605 0.14331,-1.433161 h 0.99219 v 0.396875 l -0.25356,2.370229 h 0.18741 q 0.77171,-0.07717 1.51034,-0.165365 0.74965,-0.08819 1.56545,-0.08819 v 0.209462 l -3.2632,0.319705 v 0.496095 h -0.94809 l -0.0331,-0.319705 h -0.0772 q -2.48047,0.429948 -2.92145,0.551215 -0.429946,0.121268 -1.212672,0.0441 z m 16.095502,5.324742 v -0.18741 q 0.28663,-0.451998 0.56224,-0.915019 0.28663,-0.463021 0.42995,-0.959116 h -0.17639 q -0.91502,0.176389 -1.78594,0.463022 -0.87092,0.286632 -1.86311,0.253559 v -0.176389 q 0.95912,-0.286632 1.95131,-0.529167 0.99219,-0.25356 1.98437,-0.396876 v -0.176389 l -0.25356,-0.385851 -0.20946,-0.110243 q -0.70555,0.496094 -1.69774,0.352778 v -0.209462 l 0.11024,-0.03307 0.0992,-0.220486 0.38585,-0.385851 h 0.0772 l 0.28663,-0.385851 0.0992,-0.03307 0.20946,-0.363803 0.46303,-0.595313 0.0772,-0.319705 -0.22049,-0.06615 q -0.49609,0.176389 -0.97014,0.4079 -0.47405,0.220486 -0.93707,0.507118 l -0.0331,0.06615 h -1.06936 v -0.176389 q 0.60634,-0.385851 1.2237,-0.661459 0.61736,-0.286632 1.28985,-0.429948 h 1.4552 l 0.24254,0.209462 v 0.396875 q -0.13229,0.385851 -0.38585,0.705557 l -0.28663,0.352778 -0.41893,0.463021 h -0.0661 v 0.132292 q 0.73863,-0.09922 1.30087,0.253559 l 0.22048,0.529167 h 0.0661 q 0.73863,-0.209462 1.55443,-0.143316 v 0.209462 l -1.62058,0.253559 q -0.11024,0.639411 -0.42995,1.190627 -0.3197,0.540191 -0.63941,1.069363 z m -3.92465,-4.354602 v -0.0441 q -0.28664,-0.705556 -0.39688,-1.499307 -0.0992,-0.793751 -0.0992,-1.642623 h 0.99219 l 0.0331,1.168578 h 0.14332 q 0.70556,-0.286633 1.41111,-0.529168 0.70556,-0.253559 1.45521,-0.429948 v -0.06615 h -0.0772 v -0.253559 l 0.0772,-1.984377 h 0.99219 v 0.496094 l -0.0331,0.0441 v 1.521356 h 0.13229 l 1.42214,-0.253559 h 2.05052 q 0.35278,0.03307 0.63941,0.286632 l 0.0992,0.463021 q -0.17639,0.73863 -0.62839,1.344967 h -0.95911 v -0.187413 q 0.38585,-0.595314 0.59531,-1.30087 l -0.0662,-0.143316 q -0.46302,-0.352778 -1.0914,-0.253559 -1.56546,0.220486 -3.08681,0.71658 -1.52136,0.496095 -3.00964,0.948092 v 0.110243 l 0.39687,1.488283 z m 13.68117,3.891583 v -0.110243 l -0.0331,-0.03307 v -2.304082 l 0.17639,-2.293058 h 0.94809 v 0.595313 l -0.0992,1.102432 h 0.0661 l 0.60634,-0.606337 0.52916,-0.529168 h 0.0661 l 0.11024,-0.209462 0.24254,-0.286632 0.28663,-0.319705 h 0.0662 q 0.25355,-0.418924 0.52916,-0.804775 0.28664,-0.396876 0.33073,-0.89297 l -0.14331,-0.242535 q -0.31971,-0.253559 -0.74966,-0.253559 -1.41111,0.209462 -2.75608,0.705556 -1.34496,0.496094 -2.57969,1.135505 l -0.0441,0.110243 h -1.05834 v -0.176389 q 1.69775,-0.926043 3.50573,-1.510332 1.80799,-0.584288 3.78135,-0.474045 0.52916,0 0.92604,0.352778 0.14331,0.286632 0.0992,0.672483 -0.1323,0.463022 -0.41893,0.89297 -0.28663,0.418924 -0.60633,0.804775 l -0.0992,0.03307 -0.35278,0.496094 -0.11025,0.03307 -0.28663,0.396876 -0.49609,0.496094 -0.20946,0.09922 -0.0331,0.110243 -0.3197,0.286632 h -0.88195 l -0.0441,0.209462 v 2.513544 z m 5.74367,-1.521355 v -0.176389 q 2.48047,-0.352779 4.97197,-0.584289 2.49149,-0.231511 5.00504,-0.297657 v 0.176389 q -2.51355,0.09922 -4.99402,0.4079 -2.46944,0.297657 -4.98299,0.474046 z m 5.60035,-4.012852 v -0.176389 l 0.4961,-0.286632 0.0331,-0.110243 0.20946,-0.275608 h -0.38585 q -0.88194,0.143316 -1.75286,0.352778 -0.8599,0.209462 -1.81902,0.143316 -0.14331,-0.07717 -0.11024,-0.286632 0.8158,0.03307 1.52136,-0.15434 0.70555,-0.198438 1.48828,-0.275608 h 1.87413 l 0.20946,0.110243 v 0.319705 l -0.24253,0.242535 h -0.0662 l -0.0772,0.110243 q -0.56224,0.429948 -1.37804,0.286632 z m 5.21451,5.997226 v -0.18741 l 0.14331,-0.0992 2.4033,-3.009638 0.17639,-0.176389 V 96.76009 l -0.46302,-0.319705 -0.88194,-0.73863 v -0.209462 h 0.95911 l 0.94809,0.73863 1.24575,-1.587502 1.55443,-1.951304 0.60634,-0.738629 h 0.98116 v 0.176389 l -2.82222,3.538805 -0.89297,1.135505 q 0.49609,0.352778 1.00321,0.694532 0.51814,0.330729 1.09141,0.540191 0.49609,-0.110243 1.05833,-0.07717 v 0.187414 q -0.73863,0.30868 -1.69774,0.209462 -0.52917,-0.143316 -1.01424,-0.440973 -0.47405,-0.308681 -0.97014,-0.584289 l -0.0661,0.09922 -2.09462,2.546617 -0.27561,0.3638 z m 8.44462,-3.792362 -0.0331,-0.209462 q 1.55443,-0.286633 3.10886,-0.584289 1.56545,-0.297657 3.15295,-0.474046 h 1.48829 v 0.176389 q -1.98438,0.06615 -3.88056,0.507119 -1.88516,0.440973 -3.83647,0.584289 z m 8.67614,2.689933 -0.0331,-0.209462 q 2.40331,-0.573265 4.80661,-1.190626 2.41432,-0.617362 4.88377,-0.826824 v 0.176389 q -2.43637,0.385851 -4.82865,1.080383 -2.38125,0.683508 -4.82865,0.97014 z m 3.29627,-3.263198 -0.99219,-0.110243 h -1.42214 l -0.62838,-0.06615 v -0.176389 h 1.02526 l 0.67248,0.06615 h 1.41111 l 0.88195,0.110243 v 0.176389 z m 0.91502,-2.182815 q -0.73863,-0.143316 -1.49931,-0.23151 -0.76068,-0.08819 -1.5434,-0.165365 v -0.176389 h 0.99218 q 0.78273,0.07717 1.54341,0.165365 0.76068,0.08819 1.49931,0.23151 v 0.176389 z m 6.53742,6.228742 v -0.176392 q 0.95911,-0.319705 1.84106,-0.705556 0.89297,-0.396875 1.98438,-0.319705 v 0.176389 q -0.95912,0.275608 -1.84106,0.683508 -0.88195,0.407896 -1.98438,0.341756 z m 3.36242,0 v -0.176392 l 0.22048,-0.110243 q 0.41893,-0.63941 0.70556,-1.311893 0.28663,-0.672484 0.24253,-1.488283 l -0.24253,-0.56224 q -0.28663,-0.319706 -0.70556,-0.352779 -1.02526,0.17639 -1.92925,0.749654 -0.904,0.56224 -2.00643,0.518143 v -0.176389 q 0.74965,-0.451997 1.54341,-0.804775 0.79375,-0.363803 1.67569,-0.496095 h 1.59853 q 0.41892,0.03307 0.73863,0.352779 l 0.0441,0.09922 0.0992,0.0441 q 0.25356,0.595313 0.17639,1.300869 -0.0992,0.606338 -0.33073,1.157553 -0.23151,0.540192 -0.58429,1.036286 l -0.25356,0.220489 z m -3.36242,-1.422139 v -0.176389 q 0.92604,-0.319706 1.80799,-0.617362 0.88194,-0.297657 1.9513,-0.231511 v 0.176389 q -0.95911,0.176389 -1.84106,0.551216 -0.88195,0.374827 -1.91823,0.297657 z m 6.8902,1.245747 v -0.176389 q 1.73081,-0.63941 3.40651,-1.344966 1.68672,-0.716581 3.49471,-0.959116 v 0.209462 q -1.69775,0.573265 -3.39549,1.311894 -1.69775,0.738629 -3.50573,0.959115 z m 1.0914,-4.387678 v -0.0441 q -0.3197,-0.595313 -0.7276,-1.146529 -0.39688,-0.551216 -0.71658,-1.113456 h -0.0772 v -0.176389 h 0.99219 l 0.0772,0.176389 0.0992,0.06615 q 0.35278,0.529167 0.76068,1.080383 0.4079,0.551216 0.58429,1.157553 z"
       id="text1"
       aria-label="リファルケの文字アニメーション" >
       </path>
      <g id="layer1-01">
         <path class="smoke_shadow"
            d="m 28.998055,120.08545 v -0.38585 c 0.16169,-1.27147 0.349104,-2.54294 0.56224,-3.81442 0.213137,-1.27882 0.389526,-2.56499 0.529167,-3.85851 h 0.992189 v 0.35278 c -0.16904,1.29352 -0.360128,2.57969 -0.573265,3.85851 -0.205787,1.27148 -0.3932,2.55397 -0.56224,3.84749 z m -2.767104,-3.92466 -0.176389,-0.17639 -0.06615,-1.05833 0.275608,-4.24436 h 0.959116 v 0.73863 l -0.242535,4.10104 0.03307,0.0772 h 0.06615 v -0.0331 c 0.352778,-0.0735 0.720255,-0.0992 1.102431,-0.0772 v 0.17639 h -0.07717 l -0.06615,0.11024 c -0.235185,0.23519 -0.514468,0.36381 -0.837848,0.38585 -0.31603,0.0221 -0.63941,0.0221 -0.97014,0 z"
            style="font-size:11.2889px;font-family:'851MkPOP';-inkscape-font-specification:'851MkPOP, Normal';fill:none;stroke:#ffffff;stroke-width:8;paint-order:stroke fill markers"
            id="path01-st-01-1" />
         <path class="smoke"
            d="m 28.998055,120.08545 v -0.38585 c 0.16169,-1.27147 0.349104,-2.54294 0.56224,-3.81442 0.213137,-1.27882 0.389526,-2.56499 0.529167,-3.85851 h 0.992189 v 0.35278 c -0.16904,1.29352 -0.360128,2.57969 -0.573265,3.85851 -0.205787,1.27148 -0.3932,2.55397 -0.56224,3.84749 z m -2.767104,-3.92466 -0.176389,-0.17639 -0.06615,-1.05833 0.275608,-4.24436 h 0.959116 v 0.73863 l -0.242535,4.10104 0.03307,0.0772 h 0.06615 v -0.0331 c 0.352778,-0.0735 0.720255,-0.0992 1.102431,-0.0772 v 0.17639 h -0.07717 l -0.06615,0.11024 c -0.235185,0.23519 -0.514468,0.36381 -0.837848,0.38585 -0.31603,0.0221 -0.63941,0.0221 -0.97014,0 z"
            style="font-size:11.2889px;font-family:'851MkPOP';-inkscape-font-specification:'851MkPOP, Normal';fill:none;stroke:#ffffff;stroke-width:4;paint-order:stroke fill markers"
            id="path01-st-01-2" />
         <path class="st-01"
            d="m 28.998055,120.08545 v -0.38585 c 0.16169,-1.27147 0.349104,-2.54294 0.56224,-3.81442 0.213137,-1.27882 0.389526,-2.56499 0.529167,-3.85851 h 0.992189 v 0.35278 c -0.16904,1.29352 -0.360128,2.57969 -0.573265,3.85851 -0.205787,1.27148 -0.3932,2.55397 -0.56224,3.84749 z m -2.767104,-3.92466 -0.176389,-0.17639 -0.06615,-1.05833 0.275608,-4.24436 h 0.959116 v 0.73863 l -0.242535,4.10104 0.03307,0.0772 h 0.06615 v -0.0331 c 0.352778,-0.0735 0.720255,-0.0992 1.102431,-0.0772 v 0.17639 h -0.07717 l -0.06615,0.11024 c -0.235185,0.23519 -0.514468,0.36381 -0.837848,0.38585 -0.31603,0.0221 -0.63941,0.0221 -0.97014,0 z"
            style="font-size:11.2889px;font-family:'851MkPOP';-inkscape-font-specification:'851MkPOP, Normal';fill:#ffff00;stroke:#000000;stroke-width:0.265;paint-order:stroke fill markers"
            id="path01" />
      </g>
      <g id="layer1-02">
         <path class="smoke_shadow"
            d="m 33.87595,119.1355 v -0.17639 c 0.257234,-0.16169 0.507118,-0.34542 0.749653,-0.55121 0.249885,-0.19844 0.49242,-0.40423 0.727605,-0.61736 1.322918,-1.34497 2.219563,-2.27836 2.689934,-2.80018 0.470371,-0.52182 0.944416,-1.12081 1.422137,-1.79696 l 0.143316,-0.52917 -0.110244,-0.28663 c -0.235185,-0.16904 -0.507118,-0.26458 -0.815799,-0.28663 -0.940741,0.0735 -1.837386,0.31603 -2.689933,0.7276 -0.845198,0.41157 -1.730818,0.65411 -2.656861,0.72761 v -0.17639 c 0.926043,-0.49977 1.896183,-0.8893 2.91042,-1.16858 1.014237,-0.28663 2.061547,-0.3932 3.14193,-0.31971 0.382177,0 0.712906,0.0956 0.992189,0.28664 0.169039,0.18373 0.23886,0.40789 0.209462,0.67248 -0.139641,0.51447 -0.297657,0.87827 -0.474046,1.09141 -0.176389,0.21313 -0.426273,0.50344 -0.749653,0.87092 -0.316031,0.36747 -1.014237,1.12815 -2.09462,2.28203 l -1.344967,1.2678 -0.352778,0.22048 -0.07717,0.0992 -0.529168,0.42995 z"
            style="font-size:11.2889px;font-family:'851MkPOP';-inkscape-font-specification:'851MkPOP, Normal';fill:none;stroke:#ffffff;stroke-width:8;paint-order:stroke fill markers"
            id="path02" />
         <path class="smoke"
            d="m 33.87595,119.1355 v -0.17639 c 0.257234,-0.16169 0.507118,-0.34542 0.749653,-0.55121 0.249885,-0.19844 0.49242,-0.40423 0.727605,-0.61736 1.322918,-1.34497 2.219563,-2.27836 2.689934,-2.80018 0.470371,-0.52182 0.944416,-1.12081 1.422137,-1.79696 l 0.143316,-0.52917 -0.110244,-0.28663 c -0.235185,-0.16904 -0.507118,-0.26458 -0.815799,-0.28663 -0.940741,0.0735 -1.837386,0.31603 -2.689933,0.7276 -0.845198,0.41157 -1.730818,0.65411 -2.656861,0.72761 v -0.17639 c 0.926043,-0.49977 1.896183,-0.8893 2.91042,-1.16858 1.014237,-0.28663 2.061547,-0.3932 3.14193,-0.31971 0.382177,0 0.712906,0.0956 0.992189,0.28664 0.169039,0.18373 0.23886,0.40789 0.209462,0.67248 -0.139641,0.51447 -0.297657,0.87827 -0.474046,1.09141 -0.176389,0.21313 -0.426273,0.50344 -0.749653,0.87092 -0.316031,0.36747 -1.014237,1.12815 -2.09462,2.28203 l -1.344967,1.2678 -0.352778,0.22048 -0.07717,0.0992 -0.529168,0.42995 z"
            style="font-size:11.2889px;font-family:'851MkPOP';-inkscape-font-specification:'851MkPOP, Normal';fill:none;stroke:#ffffff;stroke-width:4;paint-order:stroke fill markers"
            id="path02" />
         <path class="st-02"
            d="m 33.87595,119.1355 v -0.17639 c 0.257234,-0.16169 0.507118,-0.34542 0.749653,-0.55121 0.249885,-0.19844 0.49242,-0.40423 0.727605,-0.61736 1.322918,-1.34497 2.219563,-2.27836 2.689934,-2.80018 0.470371,-0.52182 0.944416,-1.12081 1.422137,-1.79696 l 0.143316,-0.52917 -0.110244,-0.28663 c -0.235185,-0.16904 -0.507118,-0.26458 -0.815799,-0.28663 -0.940741,0.0735 -1.837386,0.31603 -2.689933,0.7276 -0.845198,0.41157 -1.730818,0.65411 -2.656861,0.72761 v -0.17639 c 0.926043,-0.49977 1.896183,-0.8893 2.91042,-1.16858 1.014237,-0.28663 2.061547,-0.3932 3.14193,-0.31971 0.382177,0 0.712906,0.0956 0.992189,0.28664 0.169039,0.18373 0.23886,0.40789 0.209462,0.67248 -0.139641,0.51447 -0.297657,0.87827 -0.474046,1.09141 -0.176389,0.21313 -0.426273,0.50344 -0.749653,0.87092 -0.316031,0.36747 -1.014237,1.12815 -2.09462,2.28203 l -1.344967,1.2678 -0.352778,0.22048 -0.07717,0.0992 -0.529168,0.42995 z"
            style="font-size:11.2889px;font-family:'851MkPOP';-inkscape-font-specification:'851MkPOP, Normal';fill:#ffff00;stroke:#000000;stroke-width:0.265;paint-order:stroke fill markers"
            id="path02" />
      </g>
      <path class="st-03"
         d="m 43.170848,119.62242 v -0.0331 c -0.09554,-0.42627 -0.143316,-0.8746 -0.143316,-1.34497 l 0.209462,-2.06154 h 0.959116 v 0.39687 c -0.05145,0.35278 -0.09554,0.72026 -0.132292,1.10243 -0.0294,0.37483 -0.0441,0.74965 -0.0441,1.12448 l 0.132291,0.8158 z m 1.12448,-2.16076 v -0.17639 c 0.235186,-0.37483 0.488745,-0.74598 0.760678,-1.11346 0.271933,-0.36747 0.477721,-0.76435 0.617362,-1.19062 l -0.275608,-0.31971 -0.396875,-0.0331 c -0.749654,0.11759 -1.46256,0.33808 -2.138718,0.66146 -0.668809,0.31603 -1.392739,0.48506 -2.17179,0.50711 v -0.17638 c 0.8011,-0.40423 1.624249,-0.72393 2.469447,-0.95912 0.852547,-0.23519 1.749192,-0.32706 2.689933,-0.27561 l 0.672483,0.20946 c 0.124943,0.13965 0.172715,0.31604 0.143317,0.52917 -0.09555,0.37483 -0.257235,0.71658 -0.48507,1.02526 -0.220487,0.30868 -0.433624,0.62839 -0.639411,0.95912 l -0.286632,0.35278 z"
         style="font-size:11.2889px;font-family:'851MkPOP';-inkscape-font-specification:'851MkPOP, Normal';fill:#ffff00;stroke:#000000;stroke-width:0.265;paint-order:stroke fill markers"
         id="path03" />
      <path class="st-04"
         d="m 48.349255,119.29119 c -0.146991,-0.35277 -0.194763,-0.7423 -0.143316,-1.16857 0.09554,-0.63207 0.213137,-1.2678 0.352778,-1.90721 0.139641,-0.63941 0.293982,-1.26412 0.463021,-1.87413 h 0.981165 v 0.17638 c -0.183739,0.68351 -0.360128,1.3854 -0.529168,2.10565 -0.16169,0.72025 -0.268258,1.44418 -0.319705,2.17179 h 0.8158 v 0.17639 l -0.03307,0.0772 c -0.448323,0.25723 -0.97749,0.33808 -1.587502,0.24253 z m 4.310508,-1.31189 -0.385851,-0.20946 c -0.191088,-0.27929 -0.293982,-0.59532 -0.308681,-0.94809 -0.0073,-0.36013 -0.01102,-0.71659 -0.01102,-1.06936 0.0441,-0.63206 0.102896,-1.26045 0.176389,-1.88516 0.0735,-0.63206 0.158015,-1.2531 0.253559,-1.86311 h 0.981164 v 0.31971 c -0.139641,0.70555 -0.24621,1.42948 -0.319705,2.17179 -0.06615,0.7423 -0.09922,1.49195 -0.09922,2.24896 0.02205,0.33073 0.139639,0.62471 0.352778,0.88194 l 0.209462,0.0772 c 0.639411,-0.19109 1.253098,-0.45567 1.841061,-0.79375 0.587964,-0.34543 1.249423,-0.49609 1.984377,-0.452 v 0.17639 c -0.734954,0.36013 -1.473583,0.69821 -2.215887,1.01424 -0.742304,0.31603 -1.561778,0.42628 -2.458423,0.33073 z"
         style="font-size:11.2889px;font-family:'851MkPOP';-inkscape-font-specification:'851MkPOP, Normal';fill:#ffff00;stroke:#000000;stroke-width:0.265;paint-order:stroke fill markers"
         id="path04" />
      <path class="st-05"
         d="m 60.585632,120.03496 v -0.17639 c 0.33073,-0.83049 0.701882,-1.64629 1.113456,-2.44739 0.411575,-0.80111 0.852547,-1.60221 1.322918,-2.40331 l 0.992189,-0.0331 v 0.17639 c -0.470371,0.77905 -0.911343,1.57648 -1.322918,2.39228 -0.411575,0.80845 -0.782727,1.63894 -1.113456,2.49149 z m -2.370228,-2.30408 v -0.49609 c 0.183739,-1.03629 0.429949,-2.0542 0.73863,-3.05374 0.308681,-1.00689 0.63941,-2.00642 0.992188,-2.99861 h 0.992189 v 0.22048 c -0.235186,0.58797 -0.455672,1.19063 -0.661459,1.80799 -0.198438,0.61001 -0.378502,1.22003 -0.540192,1.83004 h 0.242535 c 0.97014,-0.13964 1.93293,-0.27928 2.888371,-0.41893 0.955441,-0.14699 1.929255,-0.22048 2.921443,-0.22048 v 0.17639 c -1.043634,0.0955 -2.065221,0.22048 -3.064759,0.37482 -0.999538,0.15434 -2.021125,0.26826 -3.06476,0.34176 -0.117593,0.39687 -0.216812,0.79742 -0.297657,1.20165 -0.08085,0.39687 -0.14699,0.80845 -0.198437,1.23472 z"
         style="font-size:11.2889px;font-family:'851MkPOP';-inkscape-font-specification:'851MkPOP, Normal';fill:#ffff00;stroke:#000000;stroke-width:0.265;paint-order:stroke fill markers"
         id="path05" />
      <path class="st-06"
         d="m 72.513212,119.03036 v -0.17639 l 0.73863,-0.59531 0.573264,-0.57327 h 0.06615 c 0.257234,-0.37483 0.474046,-0.76068 0.650435,-1.15755 0.183739,-0.40423 0.275608,-0.84153 0.275608,-1.3119 -0.07349,-0.47037 -0.253559,-0.88561 -0.540192,-1.24574 -0.301331,-0.25723 -0.632061,-0.45567 -0.992188,-0.59532 -0.352779,-0.13964 -0.727606,-0.20946 -1.124481,-0.20946 -0.470371,0.0661 -0.926042,0.19475 -1.367015,0.38585 -0.433623,0.19109 -0.852547,0.41525 -1.256772,0.67249 l -0.03307,0.0661 -0.385851,0.31971 -0.352778,0.35278 -0.463022,0.52916 c -0.235185,0.36013 -0.352778,0.76435 -0.352778,1.21268 l 0.286633,0.41892 0.209462,0.0661 0.881945,-0.56224 0.03307,-0.0661 0.496094,-0.46302 h 0.07717 l 0.352779,-0.49609 c 0.301331,-0.35278 0.573264,-0.73128 0.815799,-1.13551 l 0.209462,-0.52917 h 0.992188 v 0.17639 c -0.213137,0.52182 -0.496094,1.01792 -0.848872,1.48829 l -0.110243,0.0331 -0.209462,0.35278 -0.352778,0.35277 h -0.07717 l -0.06615,0.14332 -0.110244,0.0331 -0.03307,0.11025 c -0.352779,0.37483 -0.768028,0.63573 -1.245748,0.78272 -0.470371,0.13965 -0.973815,0.17271 -1.510332,0.0992 l -0.429948,-0.13229 -0.286632,-0.3638 -0.06615,-0.73863 c 0.0441,-0.30868 0.143319,-0.58429 0.297656,-0.82682 0.154341,-0.24989 0.338079,-0.49242 0.551216,-0.72761 l 0.705557,-0.63941 c 0.448322,-0.30868 0.915018,-0.55489 1.400088,-0.73863 0.48507,-0.19109 0.999538,-0.32338 1.543404,-0.39687 h 1.796964 c 0.330729,0.0515 0.643085,0.13231 0.937067,0.24253 0.301331,0.10289 0.580614,0.24621 0.837848,0.42995 0.213137,0.19109 0.389526,0.41525 0.529167,0.67248 0.213137,0.40423 0.293982,0.86357 0.242535,1.37804 -0.0441,0.44832 -0.161693,0.86724 -0.352778,1.25677 -0.183739,0.38953 -0.429948,0.74966 -0.738629,1.08039 -0.352779,0.38217 -0.764353,0.72393 -1.234724,1.02526 z"
         style="font-size:11.2889px;font-family:'851MkPOP';-inkscape-font-specification:'851MkPOP, Normal';fill:#ffff00;stroke:#000000;stroke-width:0.265;paint-order:stroke fill markers"
         id="path06" />
      <path class="st-07"
         d="m 85.324979,119.49147 c -0.610012,-0.19109 -1.205325,-0.452 -1.785939,-0.78273 -0.573265,-0.33073 -1.120806,-0.70555 -1.642623,-1.12448 l -0.110243,-0.14331 h -0.09922 l -1.344967,1.52135 -0.176389,0.17639 H 79.17341 v -0.17639 l 0.242535,-0.28663 h 0.07717 l 0.143316,-0.24253 0.848872,-0.95912 0.595313,-0.63941 v -0.0992 l -0.143316,-0.0772 -0.143316,-0.14332 -0.56224,-0.73863 v -0.0661 l -0.110243,-0.0772 c -0.117593,-0.13964 -0.187413,-0.31603 -0.209462,-0.52917 h 0.959115 l 0.73863,1.05834 h 0.07717 l 0.848872,-0.9481 0.881946,-0.84887 h 0.959115 v 0.17639 l -0.463021,0.38585 -0.286632,0.38585 -0.705557,0.74966 -0.242535,0.2756 -0.396875,0.4961 0.07717,0.14332 0.385851,0.28663 0.03307,0.0992 c 0.565915,0.42627 1.142855,0.8158 1.730818,1.16857 0.595313,0.35278 1.223699,0.61369 1.885158,0.78273 v 0.17639 z m -8.202091,-5.24758 v -0.17638 c 0.448322,-0.13965 0.834173,-0.23519 1.157553,-0.28664 0.330729,-0.0588 1.348641,-0.20946 3.053736,-0.45199 0.02205,-0.49242 0.05512,-0.98117 0.09922,-1.46624 0.05145,-0.48507 0.09922,-0.96279 0.143316,-1.43316 h 0.992188 v 0.39688 l -0.253559,2.37022 h 0.187413 c 0.514468,-0.0515 1.017912,-0.10659 1.510332,-0.16536 0.499769,-0.0588 1.021586,-0.0882 1.565453,-0.0882 v 0.20946 l -3.263198,0.3197 v 0.4961 h -0.948091 l -0.03307,-0.31971 h -0.07717 c -1.653647,0.28663 -2.627462,0.47037 -2.921443,0.55122 -0.286633,0.0808 -0.690858,0.0955 -1.212675,0.0441 z"
         style="font-size:11.2889px;font-family:'851MkPOP';-inkscape-font-specification:'851MkPOP, Normal';fill:#ffff00;stroke:#000000;stroke-width:0.265;paint-order:stroke fill markers"
         id="path07" />
      <path class="st-08"
         d="m 92.176958,120.16429 v -0.18741 c 0.191088,-0.30133 0.378501,-0.60634 0.56224,-0.91502 0.191088,-0.30868 0.334404,-0.62839 0.429949,-0.95912 h -0.176389 c -0.610013,0.11759 -1.205326,0.27193 -1.78594,0.46302 -0.580614,0.19109 -1.20165,0.27561 -1.863109,0.25356 v -0.17639 c 0.63941,-0.19109 1.289845,-0.36747 1.951304,-0.52916 0.661459,-0.16904 1.322918,-0.30133 1.984377,-0.39688 v -0.17639 l -0.25356,-0.38585 -0.209462,-0.11024 c -0.470371,0.33073 -1.036285,0.44832 -1.697744,0.35278 v -0.20947 l 0.110243,-0.0331 0.09922,-0.22049 0.385851,-0.38585 h 0.07717 l 0.286632,-0.38585 0.09922,-0.0331 0.209462,-0.3638 0.463021,-0.59532 0.07717,-0.3197 -0.220487,-0.0662 c -0.330729,0.11759 -0.654109,0.25356 -0.97014,0.4079 -0.31603,0.14699 -0.628386,0.31603 -0.937067,0.50712 l -0.03307,0.0662 H 89.69649 v -0.17639 c 0.404225,-0.25723 0.812124,-0.47772 1.223699,-0.66146 0.411575,-0.19109 0.841523,-0.3344 1.289845,-0.42995 h 1.45521 l 0.242535,0.20946 v 0.39688 c -0.08819,0.25723 -0.216812,0.49242 -0.385851,0.70555 l -0.286633,0.35278 -0.418924,0.46302 h -0.06615 v 0.1323 c 0.492419,-0.0661 0.926042,0.0184 1.300869,0.25356 l 0.220486,0.52916 h 0.06615 c 0.492419,-0.13964 1.010562,-0.18741 1.554429,-0.14331 v 0.20946 l -1.620575,0.25356 c -0.0735,0.42627 -0.216811,0.82315 -0.429948,1.19062 -0.213137,0.36013 -0.426273,0.71659 -0.63941,1.06936 z m -3.924657,-4.35461 v -0.0441 c -0.191088,-0.47037 -0.32338,-0.97014 -0.396875,-1.49931 -0.06615,-0.52917 -0.09922,-1.07671 -0.09922,-1.64262 h 0.992189 l 0.03307,1.16857 h 0.143316 c 0.470371,-0.19109 0.940741,-0.36747 1.411112,-0.52916 0.470371,-0.16904 0.955441,-0.31236 1.45521,-0.42995 v -0.0662 h -0.07717 v -0.25356 l 0.07717,-1.98437 h 0.992192 v 0.49609 l -0.03307,0.0441 v 1.52135 h 0.132291 l 1.422137,-0.25356 h 2.050523 c 0.235185,0.0221 0.448322,0.11761 0.63941,0.28664 l 0.09922,0.46302 c -0.117593,0.49242 -0.327055,0.94074 -0.628386,1.34496 h -0.959115 v -0.18741 c 0.257234,-0.39687 0.455672,-0.8305 0.595313,-1.30087 l -0.06615,-0.14331 c -0.308681,-0.23519 -0.672483,-0.31971 -1.091407,-0.25356 -1.043635,0.14699 -2.072572,0.38585 -3.086809,0.71658 -1.014237,0.33073 -2.01745,0.64676 -3.009639,0.94809 v 0.11024 l 0.396876,1.48828 z"
         style="font-size:11.2889px;font-family:'851MkPOP';-inkscape-font-specification:'851MkPOP, Normal';fill:#ffff00;stroke:#000000;stroke-width:0.265;paint-order:stroke fill markers"
         id="path08" />
      <path class="st-09"
         d="m 102.373,119.40003 v -0.11024 l -0.0331,-0.0331 v -2.30406 l 0.17639,-2.29306 h 0.94809 v 0.59532 l -0.0992,1.10243 h 0.0662 l 0.60634,-0.60634 0.52916,-0.52917 h 0.0662 l 0.11024,-0.20946 0.24254,-0.28663 0.28663,-0.31971 h 0.0661 c 0.16904,-0.27928 0.34543,-0.54754 0.52916,-0.80477 0.19109,-0.26459 0.30134,-0.56224 0.33073,-0.89297 l -0.14331,-0.24254 c -0.21314,-0.16904 -0.46303,-0.25356 -0.74966,-0.25356 -0.94074,0.13965 -1.85943,0.37483 -2.75608,0.70556 -0.89664,0.33073 -1.75654,0.70923 -2.579686,1.1355 l -0.0441,0.11025 h -1.058339 v -0.17639 c 1.131829,-0.61736 2.300405,-1.1208 3.505735,-1.51033 1.20532,-0.38953 2.46577,-0.54754 3.78134,-0.47405 0.35277,0 0.66145,0.11759 0.92604,0.35278 0.0955,0.19109 0.12861,0.41525 0.0992,0.67248 -0.0882,0.30868 -0.22784,0.60634 -0.41893,0.89297 -0.19109,0.27929 -0.3932,0.54755 -0.60633,0.80478 l -0.0992,0.0331 -0.35278,0.4961 -0.11024,0.0331 -0.28664,0.39687 -0.49609,0.4961 -0.20946,0.0992 -0.0331,0.11024 -0.3197,0.28663 h -0.88195 l -0.0441,0.20946 v 2.51355 z"
         style="font-size:11.2889px;font-family:'851MkPOP';-inkscape-font-specification:'851MkPOP, Normal';fill:#ffff00;stroke:#000000;stroke-width:0.265;paint-order:stroke fill markers"
         id="path09" />
      <path class="st-10"
         d="m 108.21449,117.75579 v -0.17639 c 1.65365,-0.23518 3.31097,-0.42994 4.97197,-0.58429 1.66099,-0.15434 3.32934,-0.25356 5.00504,-0.29765 v 0.17639 c -1.6757,0.0661 -3.34037,0.2021 -4.99402,0.4079 -1.64629,0.19843 -3.30729,0.35645 -4.98299,0.47404 z m 5.60035,-4.01285 v -0.17639 l 0.4961,-0.28663 0.0331,-0.11024 0.20946,-0.27561 h -0.38585 c -0.58796,0.0956 -1.17225,0.21314 -1.75286,0.35278 -0.57327,0.13964 -1.17961,0.18741 -1.81902,0.14331 -0.0955,-0.0515 -0.13229,-0.14701 -0.11024,-0.28663 0.54387,0.0221 1.05099,-0.0294 1.52136,-0.15434 0.47037,-0.13229 0.96646,-0.22416 1.48828,-0.27561 h 1.87413 l 0.20947,0.11025 v 0.3197 l -0.24254,0.24254 h -0.0662 l -0.0772,0.11024 c -0.37483,0.28663 -0.83417,0.38218 -1.37804,0.28663 z"
         style="font-size:11.2889px;font-family:'851MkPOP';-inkscape-font-specification:'851MkPOP, Normal';fill:#ffff00;stroke:#000000;stroke-width:0.265;paint-order:stroke fill markers"
         id="path10" />
      <path class="st-11"
         d="m 119.7002,119.3016 v -0.18741 l 0.14331,-0.0992 2.4033,-3.00964 0.17639,-0.17639 v -0.11024 l -0.46302,-0.31971 -0.88194,-0.73863 v -0.20946 h 0.95911 l 0.94809,0.73863 1.24575,-1.5875 1.55443,-1.95131 0.60634,-0.73863 h 0.98116 v 0.17639 l -2.82222,3.53881 -0.89297,1.1355 c 0.33073,0.23519 0.66513,0.4667 1.00321,0.69454 0.34543,0.22049 0.70923,0.40055 1.09141,0.54019 0.33073,-0.0735 0.6835,-0.0992 1.05833,-0.0772 v 0.18741 c -0.49242,0.20579 -1.05833,0.27561 -1.69774,0.20946 -0.35278,-0.0955 -0.69086,-0.24253 -1.01424,-0.44097 -0.31603,-0.20579 -0.63941,-0.40055 -0.97014,-0.58429 l -0.0661,0.0992 -2.09462,2.54662 -0.2756,0.3638 z"
         style="font-size:11.2889px;font-family:'851MkPOP';-inkscape-font-specification:'851MkPOP, Normal';fill:#ffff00;stroke:#000000;stroke-width:0.265;paint-order:stroke fill markers"
         id="path11" />
      <path class="st-12"
         d="m 127.40217,115.80705 -0.0331,-0.20946 c 1.03629,-0.19109 2.07257,-0.38585 3.10886,-0.58429 1.04363,-0.19843 2.09462,-0.35645 3.15295,-0.47404 h 1.48829 v 0.17639 c -1.32292,0.0441 -2.61644,0.21311 -3.88056,0.50712 -1.25677,0.29398 -2.5356,0.48874 -3.83647,0.58428 z"
         style="font-size:11.2889px;font-family:'851MkPOP';-inkscape-font-specification:'851MkPOP, Normal';fill:#ffff00;stroke:#000000;stroke-width:0.265;paint-order:stroke fill markers"
         id="path12" />
      <path class="st-13"
         d="m 136.06482,118.31579 -0.0331,-0.20946 c 1.6022,-0.38218 3.2044,-0.77906 4.8066,-1.19063 1.60955,-0.41157 3.23747,-0.68718 4.88377,-0.82682 v 0.17639 c -1.62425,0.25723 -3.2338,0.61736 -4.82865,1.08038 -1.5875,0.45567 -3.19705,0.77905 -4.82865,0.97014 z m 3.29627,-3.2632 -0.99219,-0.11024 h -1.42214 l -0.62838,-0.0662 v -0.17639 h 1.02526 l 0.67248,0.0661 h 1.41112 l 0.88194,0.11024 v 0.17639 z m 0.91502,-2.18281 c -0.49242,-0.0956 -0.99219,-0.17272 -1.49931,-0.23152 -0.50712,-0.0588 -1.02159,-0.11392 -1.5434,-0.16536 v -0.17639 h 0.99218 c 0.52182,0.0515 1.03629,0.10659 1.54341,0.16537 0.50712,0.0588 1.00689,0.13597 1.49931,0.23151 v 0.17639 z"
         style="font-size:11.2889px;font-family:'851MkPOP';-inkscape-font-specification:'851MkPOP, Normal';fill:#ffff00;stroke:#000000;stroke-width:0.265;paint-order:stroke fill markers"
         id="path13" />
      <path class="st-14"
         d="m 146.948,117.96212 v -0.17638 c 0.63941,-0.21314 1.2531,-0.44833 1.84106,-0.70556 0.59531,-0.26459 1.25677,-0.37116 1.98438,-0.31971 v 0.17639 c -0.63941,0.18374 -1.2531,0.41158 -1.84106,0.68351 -0.58797,0.27193 -1.24943,0.38585 -1.98438,0.34175 z m 3.36242,0 v -0.17638 l 0.22048,-0.11025 c 0.27929,-0.42627 0.51447,-0.86357 0.70556,-1.31189 0.19109,-0.44832 0.27193,-0.94441 0.24253,-1.48828 l -0.24253,-0.56224 c -0.19109,-0.21314 -0.42627,-0.33073 -0.70556,-0.35278 -0.68351,0.11759 -1.32659,0.36748 -1.92925,0.74965 -0.60267,0.37483 -1.27148,0.54754 -2.00643,0.51814 v -0.17639 c 0.49977,-0.30133 1.01424,-0.56958 1.54341,-0.80477 0.52917,-0.24253 1.08773,-0.4079 1.67569,-0.49609 h 1.59853 c 0.27928,0.0221 0.52549,0.13966 0.73863,0.35277 l 0.0441,0.0992 0.0992,0.0441 c 0.16904,0.39687 0.22784,0.8305 0.17639,1.30087 -0.0661,0.40423 -0.17638,0.79008 -0.33073,1.15755 -0.15434,0.36013 -0.3491,0.70556 -0.58429,1.03629 l -0.25356,0.22048 z m -3.36242,-1.42213 v -0.17639 c 0.61736,-0.21314 1.22002,-0.41893 1.80799,-0.61736 0.58796,-0.19844 1.23839,-0.27561 1.9513,-0.23151 v 0.17639 c -0.63941,0.11759 -1.25309,0.30132 -1.84106,0.55121 -0.58796,0.24989 -1.22737,0.34911 -1.91823,0.29766 z"
         style="font-size:11.2889px;font-family:'851MkPOP';-inkscape-font-specification:'851MkPOP, Normal';fill:#ffff00;stroke:#000000;stroke-width:0.265;paint-order:stroke fill markers"
         id="path14" />
      <path class="st-15"
         style="fill:#ffff00;stroke:#000000;stroke-width:0.265;paint-order:stroke fill markers"
         d="m 153.88398,118.90333 v -0.17639 c 1.15387,-0.42627 2.28938,-0.8746 3.40651,-1.34497 1.12448,-0.47772 2.28938,-0.79743 3.49471,-0.95912 v 0.20947 c -1.13183,0.38217 -2.26366,0.81947 -3.39549,1.31189 -1.13183,0.49242 -2.30041,0.81213 -3.50573,0.95912 z m 1.0914,-4.38768 v -0.0441 c -0.21313,-0.39687 -0.45567,-0.77905 -0.7276,-1.14653 -0.26459,-0.36747 -0.50345,-0.73862 -0.71658,-1.11345 h -0.0772 v -0.17639 h 0.99219 l 0.0772,0.17639 0.0992,0.0661 c 0.23518,0.35278 0.48874,0.71291 0.76067,1.08038 0.27193,0.36748 0.4667,0.75333 0.58429,1.15756 z"
         id="text15"
         aria-label="リファルケの文字アニメーション"
         sodipodi:nodetypes="cccccsccccccccccscc" />
   </g>
   <!-- パス結合テスト -->
    <path
       style="font-size:11.2889px;font-family:'851MkPOP';-inkscape-font-specification:'851MkPOP, Normal';fill:#ffff00;stroke:#000000;stroke-width:0.265;paint-order:stroke fill markers"
       d="m 28.998055,120.08545 v -0.38585 c 0.16169,-1.27147 0.349104,-2.54294 0.56224,-3.81442 0.213137,-1.27882 0.389526,-2.56499 0.529167,-3.85851 h 0.992189 v 0.35278 c -0.16904,1.29352 -0.360128,2.57969 -0.573265,3.85851 -0.205787,1.27148 -0.3932,2.55397 -0.56224,3.84749 z m -2.767104,-3.92466 -0.176389,-0.17639 -0.06615,-1.05833 0.275608,-4.24436 h 0.959116 v 0.73863 l -0.242535,4.10104 0.03307,0.0772 h 0.06615 v -0.0331 c 0.352778,-0.0735 0.720255,-0.0992 1.102431,-0.0772 v 0.17639 h -0.07717 l -0.06615,0.11024 c -0.235185,0.23519 -0.514468,0.36381 -0.837848,0.38585 -0.31603,0.0221 -0.63941,0.0221 -0.97014,0 z
       M 33.87595,119.1355 v -0.17639 c 0.257234,-0.16169 0.507118,-0.34542 0.749653,-0.55121 0.249885,-0.19844 0.49242,-0.40423 0.727605,-0.61736 1.322918,-1.34497 2.219563,-2.27836 2.689934,-2.80018 0.470371,-0.52182 0.944416,-1.12081 1.422137,-1.79696 l 0.143316,-0.52917 -0.110244,-0.28663 c -0.235185,-0.16904 -0.507118,-0.26458 -0.815799,-0.28663 -0.940741,0.0735 -1.837386,0.31603 -2.689933,0.7276 -0.845198,0.41157 -1.730818,0.65411 -2.656861,0.72761 v -0.17639 c 0.926043,-0.49977 1.896183,-0.8893 2.91042,-1.16858 1.014237,-0.28663 2.061547,-0.3932 3.14193,-0.31971 0.382177,0 0.712906,0.0956 0.992189,0.28664 0.169039,0.18373 0.23886,0.40789 0.209462,0.67248 -0.139641,0.51447 -0.297657,0.87827 -0.474046,1.09141 -0.176389,0.21313 -0.426273,0.50344 -0.749653,0.87092 -0.316031,0.36747 -1.014237,1.12815 -2.09462,2.28203 l -1.344967,1.2678 -0.352778,0.22048 -0.07717,0.0992 -0.529168,0.42995 z
       M 43.170848,119.62242 v -0.0331 c -0.09554,-0.42627 -0.143316,-0.8746 -0.143316,-1.34497 l 0.209462,-2.06154 h 0.959116 v 0.39687 c -0.05145,0.35278 -0.09554,0.72026 -0.132292,1.10243 -0.0294,0.37483 -0.0441,0.74965 -0.0441,1.12448 l 0.132291,0.8158 z m 1.12448,-2.16076 v -0.17639 c 0.235186,-0.37483 0.488745,-0.74598 0.760678,-1.11346 0.271933,-0.36747 0.477721,-0.76435 0.617362,-1.19062 l -0.275608,-0.31971 -0.396875,-0.0331 c -0.749654,0.11759 -1.46256,0.33808 -2.138718,0.66146 -0.668809,0.31603 -1.392739,0.48506 -2.17179,0.50711 v -0.17638 c 0.8011,-0.40423 1.624249,-0.72393 2.469447,-0.95912 0.852547,-0.23519 1.749192,-0.32706 2.689933,-0.27561 l 0.672483,0.20946 c 0.124943,0.13965 0.172715,0.31604 0.143317,0.52917 -0.09555,0.37483 -0.257235,0.71658 -0.48507,1.02526 -0.220487,0.30868 -0.433624,0.62839 -0.639411,0.95912 l -0.286632,0.35278 z
       M 48.349255,119.29119 c -0.146991,-0.35277 -0.194763,-0.7423 -0.143316,-1.16857 0.09554,-0.63207 0.213137,-1.2678 0.352778,-1.90721 0.139641,-0.63941 0.293982,-1.26412 0.463021,-1.87413 h 0.981165 v 0.17638 c -0.183739,0.68351 -0.360128,1.3854 -0.529168,2.10565 -0.16169,0.72025 -0.268258,1.44418 -0.319705,2.17179 h 0.8158 v 0.17639 l -0.03307,0.0772 c -0.448323,0.25723 -0.97749,0.33808 -1.587502,0.24253 z m 4.310508,-1.31189 -0.385851,-0.20946 c -0.191088,-0.27929 -0.293982,-0.59532 -0.308681,-0.94809 -0.0073,-0.36013 -0.01102,-0.71659 -0.01102,-1.06936 0.0441,-0.63206 0.102896,-1.26045 0.176389,-1.88516 0.0735,-0.63206 0.158015,-1.2531 0.253559,-1.86311 h 0.981164 v 0.31971 c -0.139641,0.70555 -0.24621,1.42948 -0.319705,2.17179 -0.06615,0.7423 -0.09922,1.49195 -0.09922,2.24896 0.02205,0.33073 0.139639,0.62471 0.352778,0.88194 l 0.209462,0.0772 c 0.639411,-0.19109 1.253098,-0.45567 1.841061,-0.79375 0.587964,-0.34543 1.249423,-0.49609 1.984377,-0.452 v 0.17639 c -0.734954,0.36013 -1.473583,0.69821 -2.215887,1.01424 -0.742304,0.31603 -1.561778,0.42628 -2.458423,0.33073 z
       M 60.585632,120.03496 v -0.17639 c 0.33073,-0.83049 0.701882,-1.64629 1.113456,-2.44739 0.411575,-0.80111 0.852547,-1.60221 1.322918,-2.40331 l 0.992189,-0.0331 v 0.17639 c -0.470371,0.77905 -0.911343,1.57648 -1.322918,2.39228 -0.411575,0.80845 -0.782727,1.63894 -1.113456,2.49149 z m -2.370228,-2.30408 v -0.49609 c 0.183739,-1.03629 0.429949,-2.0542 0.73863,-3.05374 0.308681,-1.00689 0.63941,-2.00642 0.992188,-2.99861 h 0.992189 v 0.22048 c -0.235186,0.58797 -0.455672,1.19063 -0.661459,1.80799 -0.198438,0.61001 -0.378502,1.22003 -0.540192,1.83004 h 0.242535 c 0.97014,-0.13964 1.93293,-0.27928 2.888371,-0.41893 0.955441,-0.14699 1.929255,-0.22048 2.921443,-0.22048 v 0.17639 c -1.043634,0.0955 -2.065221,0.22048 -3.064759,0.37482 -0.999538,0.15434 -2.021125,0.26826 -3.06476,0.34176 -0.117593,0.39687 -0.216812,0.79742 -0.297657,1.20165 -0.08085,0.39687 -0.14699,0.80845 -0.198437,1.23472 z
       M 72.513212,119.03036 v -0.17639 l 0.73863,-0.59531 0.573264,-0.57327 h 0.06615 c 0.257234,-0.37483 0.474046,-0.76068 0.650435,-1.15755 0.183739,-0.40423 0.275608,-0.84153 0.275608,-1.3119 -0.07349,-0.47037 -0.253559,-0.88561 -0.540192,-1.24574 -0.301331,-0.25723 -0.632061,-0.45567 -0.992188,-0.59532 -0.352779,-0.13964 -0.727606,-0.20946 -1.124481,-0.20946 -0.470371,0.0661 -0.926042,0.19475 -1.367015,0.38585 -0.433623,0.19109 -0.852547,0.41525 -1.256772,0.67249 l -0.03307,0.0661 -0.385851,0.31971 -0.352778,0.35278 -0.463022,0.52916 c -0.235185,0.36013 -0.352778,0.76435 -0.352778,1.21268 l 0.286633,0.41892 0.209462,0.0661 0.881945,-0.56224 0.03307,-0.0661 0.496094,-0.46302 h 0.07717 l 0.352779,-0.49609 c 0.301331,-0.35278 0.573264,-0.73128 0.815799,-1.13551 l 0.209462,-0.52917 h 0.992188 v 0.17639 c -0.213137,0.52182 -0.496094,1.01792 -0.848872,1.48829 l -0.110243,0.0331 -0.209462,0.35278 -0.352778,0.35277 h -0.07717 l -0.06615,0.14332 -0.110244,0.0331 -0.03307,0.11025 c -0.352779,0.37483 -0.768028,0.63573 -1.245748,0.78272 -0.470371,0.13965 -0.973815,0.17271 -1.510332,0.0992 l -0.429948,-0.13229 -0.286632,-0.3638 -0.06615,-0.73863 c 0.0441,-0.30868 0.143319,-0.58429 0.297656,-0.82682 0.154341,-0.24989 0.338079,-0.49242 0.551216,-0.72761 l 0.705557,-0.63941 c 0.448322,-0.30868 0.915018,-0.55489 1.400088,-0.73863 0.48507,-0.19109 0.999538,-0.32338 1.543404,-0.39687 h 1.796964 c 0.330729,0.0515 0.643085,0.13231 0.937067,0.24253 0.301331,0.10289 0.580614,0.24621 0.837848,0.42995 0.213137,0.19109 0.389526,0.41525 0.529167,0.67248 0.213137,0.40423 0.293982,0.86357 0.242535,1.37804 -0.0441,0.44832 -0.161693,0.86724 -0.352778,1.25677 -0.183739,0.38953 -0.429948,0.74966 -0.738629,1.08039 -0.352779,0.38217 -0.764353,0.72393 -1.234724,1.02526 z
       M 85.324979,119.49147 c -0.610012,-0.19109 -1.205325,-0.452 -1.785939,-0.78273 -0.573265,-0.33073 -1.120806,-0.70555 -1.642623,-1.12448 l -0.110243,-0.14331 h -0.09922 l -1.344967,1.52135 -0.176389,0.17639 H 79.17341 v -0.17639 l 0.242535,-0.28663 h 0.07717 l 0.143316,-0.24253 0.848872,-0.95912 0.595313,-0.63941 v -0.0992 l -0.143316,-0.0772 -0.143316,-0.14332 -0.56224,-0.73863 v -0.0661 l -0.110243,-0.0772 c -0.117593,-0.13964 -0.187413,-0.31603 -0.209462,-0.52917 h 0.959115 l 0.73863,1.05834 h 0.07717 l 0.848872,-0.9481 0.881946,-0.84887 h 0.959115 v 0.17639 l -0.463021,0.38585 -0.286632,0.38585 -0.705557,0.74966 -0.242535,0.2756 -0.396875,0.4961 0.07717,0.14332 0.385851,0.28663 0.03307,0.0992 c 0.565915,0.42627 1.142855,0.8158 1.730818,1.16857 0.595313,0.35278 1.223699,0.61369 1.885158,0.78273 v 0.17639 z m -8.202091,-5.24758 v -0.17638 c 0.448322,-0.13965 0.834173,-0.23519 1.157553,-0.28664 0.330729,-0.0588 1.348641,-0.20946 3.053736,-0.45199 0.02205,-0.49242 0.05512,-0.98117 0.09922,-1.46624 0.05145,-0.48507 0.09922,-0.96279 0.143316,-1.43316 h 0.992188 v 0.39688 l -0.253559,2.37022 h 0.187413 c 0.514468,-0.0515 1.017912,-0.10659 1.510332,-0.16536 0.499769,-0.0588 1.021586,-0.0882 1.565453,-0.0882 v 0.20946 l -3.263198,0.3197 v 0.4961 h -0.948091 l -0.03307,-0.31971 h -0.07717 c -1.653647,0.28663 -2.627462,0.47037 -2.921443,0.55122 -0.286633,0.0808 -0.690858,0.0955 -1.212675,0.0441 z
       M 92.176958,120.16429 v -0.18741 c 0.191088,-0.30133 0.378501,-0.60634 0.56224,-0.91502 0.191088,-0.30868 0.334404,-0.62839 0.429949,-0.95912 h -0.176389 c -0.610013,0.11759 -1.205326,0.27193 -1.78594,0.46302 -0.580614,0.19109 -1.20165,0.27561 -1.863109,0.25356 v -0.17639 c 0.63941,-0.19109 1.289845,-0.36747 1.951304,-0.52916 0.661459,-0.16904 1.322918,-0.30133 1.984377,-0.39688 v -0.17639 l -0.25356,-0.38585 -0.209462,-0.11024 c -0.470371,0.33073 -1.036285,0.44832 -1.697744,0.35278 v -0.20947 l 0.110243,-0.0331 0.09922,-0.22049 0.385851,-0.38585 h 0.07717 l 0.286632,-0.38585 0.09922,-0.0331 0.209462,-0.3638 0.463021,-0.59532 0.07717,-0.3197 -0.220487,-0.0662 c -0.330729,0.11759 -0.654109,0.25356 -0.97014,0.4079 -0.31603,0.14699 -0.628386,0.31603 -0.937067,0.50712 l -0.03307,0.0662 H 89.69649 v -0.17639 c 0.404225,-0.25723 0.812124,-0.47772 1.223699,-0.66146 0.411575,-0.19109 0.841523,-0.3344 1.289845,-0.42995 h 1.45521 l 0.242535,0.20946 v 0.39688 c -0.08819,0.25723 -0.216812,0.49242 -0.385851,0.70555 l -0.286633,0.35278 -0.418924,0.46302 h -0.06615 v 0.1323 c 0.492419,-0.0661 0.926042,0.0184 1.300869,0.25356 l 0.220486,0.52916 h 0.06615 c 0.492419,-0.13964 1.010562,-0.18741 1.554429,-0.14331 v 0.20946 l -1.620575,0.25356 c -0.0735,0.42627 -0.216811,0.82315 -0.429948,1.19062 -0.213137,0.36013 -0.426273,0.71659 -0.63941,1.06936 z m -3.924657,-4.35461 v -0.0441 c -0.191088,-0.47037 -0.32338,-0.97014 -0.396875,-1.49931 -0.06615,-0.52917 -0.09922,-1.07671 -0.09922,-1.64262 h 0.992189 l 0.03307,1.16857 h 0.143316 c 0.470371,-0.19109 0.940741,-0.36747 1.411112,-0.52916 0.470371,-0.16904 0.955441,-0.31236 1.45521,-0.42995 v -0.0662 h -0.07717 v -0.25356 l 0.07717,-1.98437 h 0.992192 v 0.49609 l -0.03307,0.0441 v 1.52135 h 0.132291 l 1.422137,-0.25356 h 2.050523 c 0.235185,0.0221 0.448322,0.11761 0.63941,0.28664 l 0.09922,0.46302 c -0.117593,0.49242 -0.327055,0.94074 -0.628386,1.34496 h -0.959115 v -0.18741 c 0.257234,-0.39687 0.455672,-0.8305 0.595313,-1.30087 l -0.06615,-0.14331 c -0.308681,-0.23519 -0.672483,-0.31971 -1.091407,-0.25356 -1.043635,0.14699 -2.072572,0.38585 -3.086809,0.71658 -1.014237,0.33073 -2.01745,0.64676 -3.009639,0.94809 v 0.11024 l 0.396876,1.48828 z
       M 102.373,119.40003 v -0.11024 l -0.0331,-0.0331 v -2.30406 l 0.17639,-2.29306 h 0.94809 v 0.59532 l -0.0992,1.10243 h 0.0662 l 0.60634,-0.60634 0.52916,-0.52917 h 0.0662 l 0.11024,-0.20946 0.24254,-0.28663 0.28663,-0.31971 h 0.0661 c 0.16904,-0.27928 0.34543,-0.54754 0.52916,-0.80477 0.19109,-0.26459 0.30134,-0.56224 0.33073,-0.89297 l -0.14331,-0.24254 c -0.21314,-0.16904 -0.46303,-0.25356 -0.74966,-0.25356 -0.94074,0.13965 -1.85943,0.37483 -2.75608,0.70556 -0.89664,0.33073 -1.75654,0.70923 -2.579686,1.1355 l -0.0441,0.11025 h -1.058339 v -0.17639 c 1.131829,-0.61736 2.300405,-1.1208 3.505735,-1.51033 1.20532,-0.38953 2.46577,-0.54754 3.78134,-0.47405 0.35277,0 0.66145,0.11759 0.92604,0.35278 0.0955,0.19109 0.12861,0.41525 0.0992,0.67248 -0.0882,0.30868 -0.22784,0.60634 -0.41893,0.89297 -0.19109,0.27929 -0.3932,0.54755 -0.60633,0.80478 l -0.0992,0.0331 -0.35278,0.4961 -0.11024,0.0331 -0.28664,0.39687 -0.49609,0.4961 -0.20946,0.0992 -0.0331,0.11024 -0.3197,0.28663 h -0.88195 l -0.0441,0.20946 v 2.51355 z
       M 108.21449,117.75579 v -0.17639 c 1.65365,-0.23518 3.31097,-0.42994 4.97197,-0.58429 1.66099,-0.15434 3.32934,-0.25356 5.00504,-0.29765 v 0.17639 c -1.6757,0.0661 -3.34037,0.2021 -4.99402,0.4079 -1.64629,0.19843 -3.30729,0.35645 -4.98299,0.47404 z m 5.60035,-4.01285 v -0.17639 l 0.4961,-0.28663 0.0331,-0.11024 0.20946,-0.27561 h -0.38585 c -0.58796,0.0956 -1.17225,0.21314 -1.75286,0.35278 -0.57327,0.13964 -1.17961,0.18741 -1.81902,0.14331 -0.0955,-0.0515 -0.13229,-0.14701 -0.11024,-0.28663 0.54387,0.0221 1.05099,-0.0294 1.52136,-0.15434 0.47037,-0.13229 0.96646,-0.22416 1.48828,-0.27561 h 1.87413 l 0.20947,0.11025 v 0.3197 l -0.24254,0.24254 h -0.0662 l -0.0772,0.11024 c -0.37483,0.28663 -0.83417,0.38218 -1.37804,0.28663 z
       M 119.7002,119.3016 v -0.18741 l 0.14331,-0.0992 2.4033,-3.00964 0.17639,-0.17639 v -0.11024 l -0.46302,-0.31971 -0.88194,-0.73863 v -0.20946 h 0.95911 l 0.94809,0.73863 1.24575,-1.5875 1.55443,-1.95131 0.60634,-0.73863 h 0.98116 v 0.17639 l -2.82222,3.53881 -0.89297,1.1355 c 0.33073,0.23519 0.66513,0.4667 1.00321,0.69454 0.34543,0.22049 0.70923,0.40055 1.09141,0.54019 0.33073,-0.0735 0.6835,-0.0992 1.05833,-0.0772 v 0.18741 c -0.49242,0.20579 -1.05833,0.27561 -1.69774,0.20946 -0.35278,-0.0955 -0.69086,-0.24253 -1.01424,-0.44097 -0.31603,-0.20579 -0.63941,-0.40055 -0.97014,-0.58429 l -0.0661,0.0992 -2.09462,2.54662 -0.2756,0.3638 z
       M 127.40217,115.80705 v -0.0331,-0.20946 c 1.03629,-0.19109 2.07257,-0.38585 3.10886,-0.58429 1.04363,-0.19843 2.09462,-0.35645 3.15295,-0.47404 h 1.48829 v 0.17639 c -1.32292,0.0441 -2.61644,0.21311 -3.88056,0.50712 -1.25677,0.29398 -2.5356,0.48874 -3.83647,0.58428 z
       M 136.06482,118.31579 v -0.0331,-0.20946 c 1.6022,-0.38218 3.2044,-0.77906 4.8066,-1.19063 1.60955,-0.41157 3.23747,-0.68718 4.88377,-0.82682 v 0.17639 c -1.62425,0.25723 -3.2338,0.61736 -4.82865,1.08038 -1.5875,0.45567 -3.19705,0.77905 -4.82865,0.97014 z m 3.29627,-3.2632 -0.99219,-0.11024 h -1.42214 l -0.62838,-0.0662 v -0.17639 h 1.02526 l 0.67248,0.0661 h 1.41112 l 0.88194,0.11024 v 0.17639 z m 0.91502,-2.18281 c -0.49242,-0.0956 -0.99219,-0.17272 -1.49931,-0.23152 -0.50712,-0.0588 -1.02159,-0.11392 -1.5434,-0.16536 v -0.17639 h 0.99218 c 0.52182,0.0515 1.03629,0.10659 1.54341,0.16537 0.50712,0.0588 1.00689,0.13597 1.49931,0.23151 v 0.17639 z
       M 146.948,117.96212 v -0.17638 c 0.63941,-0.21314 1.2531,-0.44833 1.84106,-0.70556 0.59531,-0.26459 1.25677,-0.37116 1.98438,-0.31971 v 0.17639 c -0.63941,0.18374 -1.2531,0.41158 -1.84106,0.68351 -0.58797,0.27193 -1.24943,0.38585 -1.98438,0.34175 z m 3.36242,0 v -0.17638 l 0.22048,-0.11025 c 0.27929,-0.42627 0.51447,-0.86357 0.70556,-1.31189 0.19109,-0.44832 0.27193,-0.94441 0.24253,-1.48828 l -0.24253,-0.56224 c -0.19109,-0.21314 -0.42627,-0.33073 -0.70556,-0.35278 -0.68351,0.11759 -1.32659,0.36748 -1.92925,0.74965 -0.60267,0.37483 -1.27148,0.54754 -2.00643,0.51814 v -0.17639 c 0.49977,-0.30133 1.01424,-0.56958 1.54341,-0.80477 0.52917,-0.24253 1.08773,-0.4079 1.67569,-0.49609 h 1.59853 c 0.27928,0.0221 0.52549,0.13966 0.73863,0.35277 l 0.0441,0.0992 0.0992,0.0441 c 0.16904,0.39687 0.22784,0.8305 0.17639,1.30087 -0.0661,0.40423 -0.17638,0.79008 -0.33073,1.15755 -0.15434,0.36013 -0.3491,0.70556 -0.58429,1.03629 l -0.25356,0.22048 z m -3.36242,-1.42213 v -0.17639 c 0.61736,-0.21314 1.22002,-0.41893 1.80799,-0.61736 0.58796,-0.19844 1.23839,-0.27561 1.9513,-0.23151 v 0.17639 c -0.63941,0.11759 -1.25309,0.30132 -1.84106,0.55121 -0.58796,0.24989 -1.22737,0.34911 -1.91823,0.29766 z
       M 153.88398,118.90333 v -0.17639 c 1.15387,-0.42627 2.28938,-0.8746 3.40651,-1.34497 1.12448,-0.47772 2.28938,-0.79743 3.49471,-0.95912 v 0.20947 c -1.13183,0.38217 -2.26366,0.81947 -3.39549,1.31189 -1.13183,0.49242 -2.30041,0.81213 -3.50573,0.95912 z m 1.0914,-4.38768 v -0.0441 c -0.21313,-0.39687 -0.45567,-0.77905 -0.7276,-1.14653 -0.26459,-0.36747 -0.50345,-0.73862 -0.71658,-1.11345 h -0.0772 v -0.17639 h 0.99219 l 0.0772,0.17639 0.0992,0.0661 c 0.23518,0.35278 0.48874,0.71291 0.76067,1.08038 0.27193,0.36748 0.4667,0.75333 0.58429,1.15756 z"
       id="text2"
       aria-label="リファルケの文字アニメーション" >
       </path>

</svg>
